<?xml version="1.0" standalone="no"?>
<!DOCTYPE svg PUBLIC "-//W3C//DTD SVG 20010904//EN"
 "http://www.w3.org/TR/2001/REC-SVG-20010904/DTD/svg10.dtd">
<svg version="1.0" xmlns="http://www.w3.org/2000/svg"
 width="840.000000pt" height="859.000000pt" viewBox="0 0 840.000000 859.000000"
 preserveAspectRatio="xMidYMid meet">
<metadata>
Created by potrace 1.16, written by Peter Selinger 2001-2019
</metadata>
<g transform="translate(0.000000,859.000000) scale(0.100000,-0.100000)"
fill="#000000" stroke="none">
<path d="M3975 7580 c-38 -5 -113 -14 -165 -20 -108 -12 -173 -22 -280 -45
-41 -9 -95 -20 -120 -24 -25 -5 -56 -14 -70 -19 -14 -6 -52 -18 -85 -27 -124
-35 -127 -36 -205 -68 -19 -8 -55 -22 -80 -32 -112 -44 -224 -97 -228 -107 -2
-5 -10 -8 -17 -8 -16 0 -79 -32 -83 -42 -2 -5 -8 -8 -14 -8 -6 0 -34 -14 -62
-32 -28 -17 -71 -42 -96 -56 -25 -14 -63 -38 -85 -54 -22 -16 -65 -45 -95 -66
-30 -20 -66 -47 -80 -59 -14 -13 -36 -23 -50 -23 -24 0 -107 24 -140 40 -9 4
-31 11 -50 14 -19 4 -44 11 -55 16 -11 4 -47 16 -80 25 -33 9 -70 21 -83 26
-31 12 -222 12 -222 -1 0 -5 -10 -10 -22 -10 -13 0 -36 -7 -52 -15 -15 -8 -35
-15 -42 -15 -8 0 -14 -4 -14 -9 0 -5 -9 -13 -21 -16 -27 -9 -139 -122 -139
-141 0 -8 -4 -14 -8 -14 -4 0 -16 -15 -27 -32 -14 -26 -109 -164 -152 -224
-20 -27 -34 -51 -39 -66 -4 -10 -9 -18 -13 -18 -4 0 -15 -16 -25 -35 -11 -19
-22 -35 -26 -35 -4 0 -10 -8 -14 -17 -7 -21 -25 -50 -48 -76 -9 -11 -33 -47
-54 -81 -21 -33 -41 -62 -46 -64 -4 -2 -8 -10 -8 -17 0 -7 -3 -15 -7 -17 -11
-4 -73 -97 -73 -107 0 -5 -3 -11 -7 -13 -5 -1 -35 -43 -68 -93 -33 -49 -62
-92 -65 -95 -3 -3 -21 -30 -40 -60 -19 -30 -38 -56 -42 -58 -5 -2 -8 -10 -8
-17 0 -7 -3 -15 -8 -17 -4 -1 -23 -28 -42 -58 -19 -30 -37 -57 -40 -60 -3 -3
-9 -12 -15 -22 -30 -49 -110 -163 -117 -166 -4 -2 -8 -7 -8 -12 0 -10 -82
-134 -92 -138 -4 -2 -8 -8 -8 -13 0 -5 -14 -28 -30 -51 -17 -22 -30 -47 -30
-55 0 -7 -4 -13 -9 -13 -25 0 -53 -232 -32 -253 6 -6 11 -20 11 -30 0 -28 29
-85 74 -147 23 -30 43 -57 46 -60 3 -3 16 -18 28 -35 69 -91 268 -297 357
-370 27 -22 54 -46 61 -52 7 -7 16 -13 20 -13 4 0 17 -11 29 -24 12 -13 26
-25 31 -27 10 -5 127 -81 134 -89 7 -7 42 -29 60 -37 30 -14 50 -38 50 -62 0
-13 4 -40 9 -60 6 -20 17 -81 26 -136 9 -55 20 -109 24 -120 11 -27 33 -113
38 -150 3 -16 7 -37 10 -45 34 -88 66 -180 70 -202 3 -16 9 -28 14 -28 5 0 9
-9 9 -21 0 -11 6 -33 14 -47 7 -15 26 -54 41 -87 15 -33 38 -82 51 -108 13
-27 24 -55 24 -63 0 -8 4 -14 9 -14 5 0 13 -10 17 -22 4 -13 9 -25 13 -28 5
-4 27 -43 80 -144 9 -17 20 -35 24 -40 4 -6 39 -56 77 -111 38 -55 74 -105 80
-112 5 -7 10 -15 10 -18 0 -4 12 -19 28 -35 15 -16 38 -42 50 -59 53 -68 102
-122 222 -241 129 -129 163 -160 240 -220 25 -19 55 -45 67 -57 12 -13 25 -23
28 -23 3 0 11 -5 18 -10 7 -6 57 -42 112 -80 55 -38 105 -73 110 -77 9 -7 78
-45 150 -82 16 -9 32 -18 35 -21 10 -10 226 -113 325 -155 17 -7 41 -17 55
-23 14 -6 50 -18 80 -28 30 -9 69 -23 87 -31 17 -7 40 -13 52 -13 12 0 21 -4
21 -9 0 -5 15 -11 33 -14 53 -8 151 -29 172 -37 57 -22 178 -43 345 -59 58 -6
148 -16 200 -21 122 -13 264 -13 409 1 106 9 166 16 336 39 33 4 92 15 130 24
39 10 86 21 105 25 81 19 136 33 155 40 11 5 47 17 80 27 33 10 71 24 85 31
14 7 33 13 43 13 9 0 25 4 35 9 9 4 33 15 52 23 108 47 321 149 330 158 5 5
43 26 125 69 28 14 55 29 60 34 6 4 55 39 110 77 55 39 105 74 112 80 7 5 15
10 18 10 3 0 16 10 28 23 12 12 42 38 67 57 77 60 111 92 240 220 128 128 158
161 220 240 19 25 45 55 58 66 12 12 22 24 22 28 0 4 5 12 10 19 6 7 41 57 80
112 38 55 73 105 77 110 8 11 50 87 82 150 9 16 19 32 22 35 4 3 9 15 13 28 4
12 12 22 17 22 5 0 9 6 9 14 0 8 11 36 24 63 13 26 36 75 51 108 15 33 34 72
41 87 8 14 14 36 14 47 0 12 4 21 9 21 5 0 12 17 16 38 4 20 10 42 14 47 4 6
16 37 26 70 10 33 21 69 26 80 4 11 15 54 25 95 9 41 20 84 25 95 4 11 15 65
24 120 9 55 19 111 21 125 3 14 8 41 11 60 5 34 32 70 53 70 5 0 10 4 10 9 0
5 10 13 22 17 12 3 26 10 32 15 6 5 47 34 91 65 44 31 82 60 83 65 2 5 8 9 14
9 5 0 15 6 22 13 7 6 39 35 72 62 101 86 271 263 348 363 11 15 29 36 38 46
10 11 18 23 18 27 0 4 6 14 13 21 54 53 97 168 97 257 0 60 -27 171 -42 171
-4 0 -8 6 -8 13 0 8 -13 33 -30 55 -16 23 -30 46 -30 52 0 5 -4 10 -8 10 -5 0
-17 16 -28 35 -10 19 -21 35 -25 35 -4 0 -9 8 -13 18 -6 17 -27 53 -36 62 -6
5 -97 139 -115 168 -5 10 -12 19 -15 22 -3 3 -21 30 -40 60 -19 30 -38 57 -42
58 -5 2 -8 10 -8 17 0 7 -3 15 -7 17 -5 2 -53 71 -108 153 -55 83 -103 152
-107 153 -5 2 -8 8 -8 13 0 10 -62 103 -72 107 -5 2 -8 10 -8 17 0 7 -3 15 -7
17 -5 2 -30 37 -58 78 -27 41 -53 77 -57 78 -5 2 -8 8 -8 12 0 7 -49 84 -87
136 -15 20 -33 49 -40 64 -4 8 -9 17 -13 20 -3 3 -26 34 -50 70 -110 165 -125
185 -132 188 -4 2 -8 10 -8 18 0 19 -110 129 -138 138 -12 4 -22 12 -22 17 0
5 -6 9 -14 9 -7 0 -27 7 -42 15 -16 8 -37 15 -46 15 -9 0 -20 5 -23 10 -8 12
-178 13 -219 1 -17 -5 -58 -17 -91 -26 -33 -10 -69 -21 -80 -26 -11 -4 -36
-11 -55 -15 -19 -3 -41 -10 -50 -14 -33 -16 -119 -40 -141 -40 -13 0 -37 12
-54 26 -46 38 -217 157 -251 174 -16 8 -63 35 -104 60 -101 61 -274 146 -400
195 -78 30 -94 37 -125 50 -16 7 -57 21 -90 30 -94 27 -127 37 -168 51 -20 8
-49 14 -62 14 -14 0 -33 4 -43 9 -31 16 -128 33 -377 65 -143 19 -501 28 -600
16z m425 -350 c152 -8 241 -18 350 -40 121 -25 196 -43 210 -50 9 -4 36 -11
60 -15 25 -4 50 -10 55 -14 6 -4 37 -16 70 -26 33 -11 64 -23 70 -27 5 -4 17
-8 27 -8 10 0 26 -4 36 -10 9 -5 40 -19 67 -30 28 -11 58 -25 67 -30 10 -6 24
-10 32 -10 8 0 16 -3 18 -7 2 -5 51 -32 110 -61 59 -30 137 -74 174 -98 37
-24 71 -44 75 -44 19 0 19 -24 0 -63 -16 -34 -21 -70 -26 -192 -3 -82 -10
-213 -16 -290 -11 -131 -10 -143 9 -185 11 -25 28 -54 38 -66 17 -18 122 -74
139 -74 4 0 36 -13 72 -30 35 -16 71 -30 79 -30 8 0 14 -3 14 -8 0 -8 59 -30
103 -39 15 -3 27 -9 27 -14 0 -12 77 -11 85 1 3 6 15 10 26 10 10 0 19 4 19 8
0 5 9 13 19 18 11 5 46 32 78 61 116 103 201 173 210 173 11 0 83 -148 83
-171 0 -8 4 -19 9 -24 5 -6 14 -32 21 -60 6 -27 15 -66 20 -85 5 -19 14 -57
20 -85 6 -27 15 -59 20 -70 5 -11 11 -36 13 -55 3 -19 8 -42 12 -51 6 -15 -11
-16 -167 -15 -145 1 -182 -2 -228 -18 -82 -27 -199 -85 -248 -122 -39 -29 -46
-31 -80 -23 -20 6 -46 14 -57 19 -11 5 -54 16 -95 25 -41 9 -89 20 -106 26
-40 12 -388 13 -411 1 -10 -6 -42 -13 -70 -17 -29 -4 -55 -11 -59 -16 -3 -5
-16 -9 -29 -9 -13 0 -26 -4 -30 -9 -3 -5 -19 -12 -35 -16 -17 -4 -30 -11 -30
-16 0 -5 -6 -9 -14 -9 -17 0 -80 -32 -84 -42 -2 -5 -8 -8 -14 -8 -11 0 -74
-45 -101 -72 -10 -10 -22 -18 -28 -18 -10 0 -89 40 -99 50 -3 3 -23 14 -45 25
-22 11 -42 23 -45 26 -3 3 -11 8 -17 10 -9 3 0 25 27 69 21 36 39 71 40 78 0
6 5 12 10 12 6 0 10 9 10 19 0 11 4 22 9 26 5 3 12 18 16 35 3 16 15 48 26 71
12 23 24 62 29 88 5 25 18 89 29 141 36 167 26 466 -21 620 -47 154 -111 271
-198 359 -41 43 -91 89 -110 103 -51 37 -150 88 -171 88 -11 0 -19 4 -19 8 0
33 -376 51 -485 23 -208 -52 -403 -213 -494 -408 -18 -37 -37 -76 -42 -85 -11
-21 -25 -75 -50 -193 -34 -162 -21 -523 22 -607 5 -10 9 -29 9 -44 0 -23 16
-70 41 -116 5 -10 9 -23 9 -29 0 -6 6 -25 14 -42 8 -18 16 -39 20 -47 3 -8 19
-37 35 -65 56 -92 62 -105 51 -105 -6 0 -36 -16 -66 -35 -30 -19 -58 -35 -63
-35 -5 0 -16 -7 -24 -15 -27 -27 -61 -28 -89 -3 -56 50 -63 55 -183 116 -74
38 -108 52 -125 52 -9 0 -20 4 -25 9 -6 5 -37 14 -70 21 -203 40 -523 21 -670
-41 -11 -4 -37 -12 -57 -18 -34 -8 -41 -6 -80 23 -52 39 -152 88 -233 114 -81
27 -258 47 -284 33 -11 -6 -45 -11 -77 -11 -54 0 -56 1 -49 23 4 12 9 38 12
57 3 19 9 40 13 45 4 6 11 28 14 50 4 22 11 54 16 70 5 17 14 50 21 75 16 64
59 191 74 220 7 14 18 37 24 53 6 15 16 27 22 27 11 0 90 -65 212 -173 32 -29
67 -56 78 -61 10 -5 19 -13 19 -18 0 -4 11 -8 25 -8 14 0 25 -4 25 -10 0 -12
54 -13 78 -1 23 11 81 32 110 38 12 3 22 9 22 14 0 5 6 9 14 9 8 0 44 14 79
30 36 17 68 30 72 30 17 0 122 56 139 74 37 42 58 107 52 166 -2 30 -10 161
-16 290 -9 196 -14 241 -29 274 -21 41 -19 61 7 70 20 8 55 28 73 43 20 16
111 67 199 110 41 21 77 41 78 45 2 5 10 8 18 8 8 0 22 4 32 10 9 5 40 19 67
30 28 12 59 25 70 30 37 17 265 90 280 90 9 0 23 4 33 9 25 13 146 41 176 41
15 0 34 4 44 10 35 19 300 43 517 47 33 1 130 -2 215 -7z m-2620 -590 c25 -7
54 -15 65 -20 11 -4 47 -16 80 -25 33 -10 67 -21 75 -25 9 -4 35 -11 58 -15
23 -4 44 -11 48 -16 3 -5 18 -9 34 -9 16 0 31 -4 34 -9 4 -5 24 -12 45 -16 22
-4 43 -14 47 -23 4 -9 9 -78 11 -152 l5 -135 -72 -28 -71 -29 -67 59 c-37 32
-72 62 -78 68 -6 5 -22 19 -35 30 -13 11 -59 50 -103 87 -142 121 -210 125
-318 16 -32 -31 -58 -59 -58 -62 0 -2 -16 -28 -36 -57 -21 -30 -57 -97 -81
-149 -55 -120 -57 -123 -78 -195 -9 -33 -21 -69 -26 -80 -5 -11 -14 -42 -20
-70 -5 -27 -14 -66 -19 -85 -4 -19 -16 -66 -25 -105 -9 -38 -23 -97 -31 -130
-9 -33 -18 -73 -21 -90 -3 -16 -9 -34 -13 -40 -4 -5 -11 -27 -14 -49 -7 -39
-10 -46 -40 -103 -9 -17 -16 -40 -16 -50 0 -10 -5 -24 -12 -31 -23 -23 42
-172 76 -172 8 0 16 -5 18 -12 2 -6 29 -13 59 -16 61 -5 72 0 196 81 39 26 77
47 85 47 7 0 22 7 32 15 11 8 30 15 42 15 12 0 24 5 26 11 2 7 43 11 112 11
64 0 113 -5 119 -11 6 -6 20 -11 30 -11 21 0 127 -60 127 -72 0 -5 6 -8 13 -8
6 -1 30 -19 52 -40 22 -22 46 -40 53 -40 6 0 12 -4 12 -10 0 -12 132 -14 145
-1 6 4 35 17 65 27 30 10 60 21 65 26 12 8 73 24 155 41 102 20 381 10 396
-14 3 -5 13 -9 21 -9 19 0 146 -61 151 -72 2 -5 10 -8 17 -8 8 0 18 -6 22 -13
11 -17 153 -139 180 -154 26 -15 76 -17 101 -4 9 5 35 17 57 27 22 11 42 22
43 27 2 4 10 7 17 7 8 0 20 6 27 13 8 6 23 17 33 23 11 6 47 26 80 44 33 18
74 42 90 52 17 10 37 21 45 25 8 3 17 9 20 12 18 22 58 28 91 14 122 -52 271
-80 340 -64 24 6 57 11 72 11 16 0 43 6 60 14 18 7 48 21 67 29 19 8 42 16 50
18 21 3 70 -11 70 -21 0 -4 8 -10 18 -14 9 -3 31 -14 47 -24 17 -10 57 -34 90
-52 33 -18 69 -38 80 -44 10 -6 25 -17 33 -23 7 -7 20 -13 28 -13 8 0 14 -3
14 -7 0 -5 19 -16 43 -27 23 -10 50 -22 59 -27 24 -12 75 -11 83 1 3 6 13 10
22 10 8 0 53 35 98 79 83 78 185 141 256 156 18 4 40 11 49 15 96 50 401 30
555 -36 97 -41 145 -54 198 -54 31 0 57 4 57 10 0 6 6 10 13 10 7 0 32 18 55
40 22 22 46 40 51 40 5 0 11 4 13 8 7 16 109 72 132 72 14 0 26 5 28 11 4 13
218 15 227 1 3 -5 15 -11 26 -15 52 -14 96 -36 160 -77 111 -70 132 -80 176
-80 22 0 55 8 72 17 41 23 87 73 87 96 0 9 5 17 10 17 6 0 10 18 10 40 0 22
-4 40 -9 40 -5 0 -11 18 -15 40 -3 22 -11 40 -16 40 -6 0 -10 7 -10 15 0 8 -4
23 -9 33 -15 26 -72 242 -92 342 -4 25 -13 61 -18 80 -6 19 -18 66 -26 104 -9
38 -20 78 -25 90 -4 11 -16 48 -25 81 -25 83 -45 133 -96 235 -17 36 -47 86
-65 113 -19 26 -34 50 -34 53 0 4 -26 32 -58 63 -74 73 -130 92 -196 67 -35
-14 -128 -84 -212 -161 -39 -34 -131 -112 -148 -125 -12 -8 -26 -21 -32 -28
-9 -13 -21 -11 -82 14 l-72 29 1 110 c0 61 3 128 7 150 7 36 11 40 49 50 23 5
45 13 49 18 4 4 16 7 26 7 18 0 96 21 143 39 56 21 125 41 143 41 12 0 23 4
26 9 3 5 22 12 42 16 20 3 44 10 53 15 43 21 109 29 142 17 36 -13 85 -59 95
-89 3 -10 9 -18 14 -18 4 0 10 -8 14 -17 5 -18 26 -54 36 -63 6 -5 63 -89 134
-195 22 -33 44 -61 48 -63 4 -2 8 -10 8 -17 0 -8 6 -20 13 -27 7 -7 39 -53 72
-103 33 -49 63 -91 68 -93 4 -2 7 -8 7 -13 0 -10 62 -103 73 -107 4 -2 7 -10
7 -18 0 -8 3 -14 8 -14 4 0 23 -27 42 -60 19 -33 38 -60 43 -60 4 0 7 -6 7
-14 0 -8 3 -16 8 -18 4 -1 30 -37 57 -78 28 -41 53 -76 58 -78 4 -2 7 -7 7
-12 0 -7 78 -129 90 -140 9 -9 30 -45 36 -62 4 -10 9 -18 13 -18 4 0 15 -14
25 -31 18 -31 117 -173 136 -196 6 -7 10 -17 10 -23 0 -5 4 -10 10 -10 5 0 12
-11 16 -25 3 -14 10 -25 14 -25 5 0 18 -20 30 -44 19 -40 20 -47 7 -78 -8 -19
-21 -40 -28 -48 -8 -8 -30 -35 -49 -60 -89 -115 -368 -390 -396 -390 -3 0 -15
-10 -27 -23 -12 -13 -29 -27 -37 -30 -20 -9 -54 -30 -60 -38 -8 -9 -93 -58
-113 -65 -9 -4 -17 -10 -17 -15 0 -5 -6 -9 -14 -9 -7 0 -34 -11 -60 -25 -26
-14 -52 -25 -58 -25 -10 0 -65 -22 -99 -40 -9 -5 -34 -12 -55 -16 -22 -3 -43
-10 -49 -14 -5 -4 -32 -10 -60 -14 -27 -3 -72 -11 -100 -16 -66 -12 -277 -11
-340 1 -27 5 -71 12 -96 15 -40 5 -47 10 -63 43 -9 20 -24 50 -33 66 -23 42
-181 196 -226 220 -20 11 -37 27 -37 36 0 14 41 104 91 201 36 70 -44 198
-132 212 -63 10 -106 -3 -149 -43 -22 -21 -40 -42 -40 -48 0 -6 -3 -13 -7 -15
-5 -1 -30 -48 -58 -103 -27 -55 -53 -101 -57 -103 -5 -2 -8 -11 -8 -21 0 -9
-4 -21 -9 -27 -5 -5 -28 -45 -51 -89 -114 -216 -151 -287 -191 -365 -24 -47
-46 -87 -49 -90 -3 -3 -14 -25 -25 -50 -11 -25 -22 -47 -25 -50 -3 -3 -10 -14
-16 -25 -6 -11 -28 -25 -50 -31 -21 -6 -46 -13 -54 -16 -98 -37 -329 -78 -483
-85 -120 -6 -192 6 -274 43 l-32 14 -3 313 c-3 292 -4 314 -23 342 -43 66 -81
88 -149 88 -67 0 -111 -26 -152 -88 -18 -27 -19 -53 -22 -342 l-3 -313 -32
-14 c-100 -45 -292 -60 -412 -31 -33 8 -79 15 -102 15 -23 0 -45 5 -48 10 -3
6 -21 10 -39 10 -19 0 -58 7 -87 16 -30 10 -78 25 -108 34 -31 9 -60 25 -65
36 -6 10 -13 21 -16 24 -11 11 -40 73 -40 86 0 8 -4 14 -9 14 -5 0 -12 11 -15
25 -4 14 -11 25 -16 25 -6 0 -10 6 -10 14 0 13 -29 75 -40 86 -5 5 -51 95
-189 365 -36 72 -68 132 -71 135 -3 3 -20 33 -38 68 -58 113 -94 162 -119 162
-7 0 -13 4 -13 9 0 14 -63 22 -110 15 -55 -9 -112 -65 -130 -129 -10 -36 -11
-52 -2 -66 7 -10 12 -25 12 -32 0 -7 18 -48 40 -91 22 -42 40 -85 40 -95 0
-10 -18 -27 -42 -41 -65 -36 -212 -190 -234 -244 -10 -25 -22 -46 -26 -46 -5
0 -8 -6 -8 -14 0 -9 -17 -16 -47 -19 -27 -4 -70 -11 -98 -16 -65 -13 -287 -13
-345 0 -25 5 -67 13 -95 18 -27 5 -70 14 -95 20 -45 11 -51 14 -123 45 -21 9
-46 16 -57 16 -10 0 -20 3 -22 8 -1 4 -34 22 -73 41 -38 19 -72 37 -75 40 -3
4 -22 15 -42 26 -21 11 -38 23 -38 27 0 5 -7 8 -15 8 -8 0 -15 4 -15 9 0 5 -8
12 -18 15 -9 3 -28 16 -42 29 -14 13 -39 32 -55 43 -73 47 -298 274 -387 389
-12 17 -29 37 -37 45 -7 8 -20 29 -28 48 -13 31 -12 38 7 78 12 24 26 44 31
44 5 0 9 4 9 9 0 9 36 63 161 246 19 28 37 52 40 55 3 3 8 12 12 20 7 15 25
44 40 64 38 52 87 129 87 136 0 4 3 10 8 12 4 2 30 37 57 78 28 41 53 77 58
78 4 2 7 7 7 12 0 11 82 134 93 138 4 2 7 8 7 13 0 6 18 34 40 64 22 30 40 58
40 62 0 5 11 20 25 35 14 15 25 29 25 31 0 6 82 130 90 137 3 3 25 36 48 73
34 54 107 161 159 233 20 27 34 51 39 67 4 9 10 17 14 17 5 0 11 8 14 18 10
32 60 77 96 88 35 10 39 9 180 -26z m2529 -22 c73 -23 121 -43 121 -50 0 -5 6
-8 14 -8 24 0 120 -104 152 -166 71 -136 99 -356 69 -534 -15 -91 -39 -196
-47 -205 -4 -5 -8 -15 -8 -23 0 -8 -13 -43 -30 -79 -16 -35 -30 -69 -30 -74 0
-5 -4 -9 -8 -9 -4 0 -16 -14 -26 -32 -45 -75 -103 -128 -185 -170 -77 -40
-175 -40 -254 0 -51 26 -177 139 -177 160 0 4 -8 17 -17 28 -25 28 -83 151
-83 176 0 8 -4 18 -8 23 -21 23 -62 278 -62 379 0 120 49 306 103 391 35 55
115 135 134 135 7 0 13 4 13 9 0 5 33 19 73 31 39 12 77 23 82 25 25 8 142 4
174 -7z m-1619 -2725 c19 -37 38 -70 41 -73 4 -3 10 -16 14 -30 4 -14 10 -27
14 -30 3 -3 21 -35 39 -72 18 -37 38 -70 43 -73 5 -4 9 -14 9 -24 0 -22 66
-97 102 -115 15 -8 41 -17 59 -21 19 -4 40 -11 49 -15 39 -19 154 -50 280 -75
47 -9 103 -22 125 -28 59 -18 476 -16 535 2 71 21 133 44 160 58 36 19 62 16
117 -11 94 -48 193 -65 373 -64 186 0 305 13 470 53 36 9 81 20 100 24 34 7
94 26 135 41 11 4 43 16 70 25 53 18 118 77 131 117 3 13 10 25 14 28 4 3 24
39 44 80 20 41 61 120 90 175 30 55 68 128 86 163 17 34 35 62 39 62 4 0 17
-9 29 -20 12 -11 24 -20 27 -20 4 0 19 -12 34 -27 63 -65 74 -102 46 -157 -8
-15 -15 -35 -15 -42 0 -8 -4 -22 -9 -32 -19 -34 -41 -85 -41 -94 0 -4 -11 -31
-24 -58 -14 -28 -28 -64 -31 -80 -4 -17 -11 -32 -16 -35 -5 -4 -9 -15 -9 -26
0 -10 -4 -19 -10 -19 -5 0 -10 -7 -10 -16 0 -15 -8 -34 -76 -182 -19 -41 -34
-78 -34 -83 0 -5 -4 -9 -10 -9 -5 0 -10 -6 -10 -14 0 -8 -13 -41 -30 -74 -16
-34 -30 -65 -30 -71 0 -5 -3 -11 -7 -13 -5 -1 -23 -31 -40 -66 -43 -81 -57
-106 -64 -112 -3 -3 -8 -12 -12 -20 -4 -8 -11 -22 -17 -30 -106 -165 -183
-320 -231 -465 -11 -33 -24 -69 -29 -80 -5 -11 -11 -36 -14 -55 -3 -19 -13
-64 -21 -100 -9 -36 -20 -96 -24 -135 -11 -91 -29 -207 -41 -268 -6 -27 -10
-74 -10 -105 0 -83 -14 -103 -80 -118 -30 -7 -56 -13 -58 -14 -5 0 8 103 18
140 5 19 14 71 20 115 21 136 28 177 45 270 9 50 20 120 25 157 5 38 11 72 14
76 3 5 10 55 15 112 13 123 1 211 -37 280 -14 25 -30 54 -36 65 -25 46 -46 67
-156 155 -24 19 -48 40 -54 45 -6 6 -31 26 -56 45 -25 19 -47 37 -50 40 -3 3
-25 21 -50 40 -25 19 -50 39 -56 45 -60 54 -104 80 -209 124 -90 38 -293 38
-380 1 -69 -29 -101 -45 -105 -50 -3 -3 -21 -16 -40 -27 -19 -12 -44 -30 -55
-40 -11 -10 -40 -34 -65 -53 -25 -19 -47 -37 -50 -40 -3 -3 -25 -21 -50 -40
-68 -53 -82 -64 -99 -80 -9 -8 -38 -33 -65 -54 -72 -58 -92 -84 -130 -161 -44
-91 -59 -192 -45 -307 5 -46 12 -92 16 -103 3 -10 9 -44 14 -75 11 -75 37
-234 48 -295 5 -27 14 -88 21 -135 7 -47 16 -94 20 -105 5 -11 11 -49 14 -84
5 -55 4 -62 -10 -57 -9 3 -33 9 -55 12 -21 4 -44 12 -50 20 -6 7 -15 50 -19
96 -15 139 -30 252 -36 278 -3 14 -10 54 -15 90 -4 36 -16 97 -24 135 -9 39
-19 88 -22 110 -3 22 -9 44 -14 49 -5 6 -9 16 -9 24 0 8 -6 28 -14 45 -7 18
-21 55 -31 82 -25 74 -93 209 -147 297 -26 43 -48 82 -48 87 0 5 -4 11 -9 13
-9 3 -45 64 -93 158 -18 36 -36 67 -40 68 -5 2 -8 8 -8 13 0 8 -78 179 -101
221 -5 10 -9 25 -9 33 0 8 -4 15 -10 15 -5 0 -10 4 -10 9 0 5 -13 39 -30 74
-16 36 -30 72 -30 81 0 9 -4 16 -10 16 -5 0 -10 6 -10 13 0 7 -21 62 -46 122
-42 98 -96 241 -111 287 -9 30 5 62 45 106 21 23 42 42 46 42 4 0 19 11 33 25
l27 24 36 -68 c19 -38 51 -100 70 -138z m-1280 -181 c105 -22 269 -41 358 -42
100 0 263 16 314 31 30 10 39 9 52 -4 9 -9 16 -24 16 -34 0 -10 7 -27 15 -37
8 -11 15 -30 15 -43 0 -13 5 -23 10 -23 6 0 10 -9 10 -19 0 -11 6 -32 14 -48
8 -15 19 -39 24 -53 16 -39 43 -102 58 -137 8 -17 14 -36 14 -42 0 -6 5 -11
10 -11 6 0 10 -7 10 -15 0 -32 243 -526 278 -563 6 -7 12 -20 12 -28 0 -8 4
-14 9 -14 5 0 11 -8 15 -17 6 -19 27 -55 37 -63 4 -3 9 -15 13 -27 4 -13 12
-23 17 -23 5 0 9 -5 9 -10 0 -6 11 -28 25 -50 14 -22 25 -46 25 -55 0 -8 5
-15 10 -15 6 0 10 -5 10 -11 0 -6 6 -25 14 -42 8 -18 22 -54 31 -82 9 -27 21
-59 25 -70 22 -51 66 -297 87 -477 5 -52 -6 -61 -43 -33 -10 8 -26 15 -36 15
-9 0 -18 3 -20 8 -1 4 -23 17 -48 30 -107 55 -290 171 -290 184 0 4 -5 8 -10
8 -11 0 -96 61 -140 100 -14 12 -47 41 -75 64 -65 53 -258 246 -311 311 -23
28 -52 61 -64 75 -39 44 -100 129 -100 140 0 5 -4 10 -8 10 -8 0 -92 123 -92
135 0 3 -11 21 -25 39 -14 18 -25 38 -25 44 0 7 -4 12 -10 12 -5 0 -12 11 -16
25 -3 14 -10 25 -14 25 -5 0 -11 14 -15 30 -4 17 -11 30 -16 30 -5 0 -9 6 -9
14 0 14 -30 76 -41 86 -3 3 -14 28 -24 55 -10 28 -22 54 -27 59 -4 6 -8 16 -8
23 0 7 -11 36 -24 65 -13 29 -32 80 -41 113 -9 33 -21 69 -25 80 -16 40 -40
124 -40 142 0 10 -7 36 -15 58 -18 51 -20 109 -3 99 7 -5 42 -14 78 -22z
m5666 -69 c-9 -26 -16 -55 -16 -65 0 -19 -23 -102 -40 -143 -4 -11 -16 -47
-25 -80 -9 -33 -28 -84 -41 -113 -13 -29 -24 -58 -24 -65 0 -7 -4 -17 -8 -23
-5 -5 -17 -31 -27 -59 -10 -27 -21 -52 -24 -55 -11 -9 -41 -71 -41 -85 0 -7
-3 -15 -7 -17 -5 -1 -18 -23 -31 -48 -55 -107 -171 -290 -184 -290 -4 0 -8 -5
-8 -11 0 -12 -89 -132 -102 -137 -4 -2 -8 -7 -8 -12 0 -26 -404 -430 -430
-430 -5 0 -10 -4 -12 -8 -5 -13 -125 -102 -137 -102 -6 0 -11 -4 -11 -8 0 -9
-124 -92 -138 -92 -6 0 -12 -3 -14 -8 -4 -9 -90 -62 -143 -88 -22 -10 -41 -22
-43 -26 -2 -5 -11 -8 -20 -8 -9 0 -26 -7 -36 -15 -11 -8 -26 -15 -34 -15 -16
0 -16 1 13 200 24 170 56 320 67 320 4 0 8 9 8 20 0 46 107 285 148 328 6 7
12 20 12 28 0 8 4 14 9 14 5 0 12 8 15 18 13 32 31 62 38 62 5 0 8 6 8 14 0 8
6 21 13 28 6 8 19 27 28 43 55 106 75 140 82 143 4 2 7 10 7 18 0 8 11 35 25
62 13 26 45 92 70 147 25 55 50 108 55 117 6 10 10 25 10 33 0 8 4 15 9 15 5
0 12 16 15 35 4 19 11 35 16 35 6 0 10 7 10 15 0 14 34 97 66 158 8 16 14 37
14 48 0 10 5 19 10 19 6 0 10 10 10 23 0 13 7 32 15 43 8 10 15 27 15 37 0 34
27 50 61 38 17 -6 103 -16 190 -23 127 -9 185 -9 287 2 70 7 132 16 137 20 6
4 35 11 65 14 30 4 62 11 70 16 22 14 25 -31 6 -87z m-2773 -822 c23 -11 51
-28 62 -38 11 -10 40 -34 65 -53 25 -19 54 -42 65 -52 36 -30 109 -89 150
-121 22 -18 57 -49 78 -71 38 -38 39 -40 34 -100 -2 -33 -12 -104 -22 -156 -9
-52 -21 -120 -26 -150 -9 -62 -34 -210 -47 -285 -5 -27 -14 -86 -21 -130 -7
-44 -16 -93 -21 -110 -5 -16 -12 -62 -16 -102 -5 -52 -11 -74 -23 -79 -34 -13
-383 -23 -559 -15 -135 6 -187 12 -197 22 -7 8 -18 50 -24 94 -20 143 -28 190
-35 211 -3 11 -10 51 -16 89 -5 39 -17 111 -26 160 -8 50 -20 115 -24 145 -5
30 -16 98 -25 150 -36 213 -32 238 53 297 26 18 61 45 77 60 17 16 50 44 75
63 25 19 47 37 50 40 3 3 25 21 50 40 25 19 55 44 68 55 66 56 176 72 255 36z"/>
</g>
</svg>
