<?xml version="1.0" standalone="no"?>
<!DOCTYPE svg PUBLIC "-//W3C//DTD SVG 20010904//EN"
 "http://www.w3.org/TR/2001/REC-SVG-20010904/DTD/svg10.dtd">
<svg version="1.0" xmlns="http://www.w3.org/2000/svg"
 width="1280.000000pt" height="810.000000pt" viewBox="0 0 1280.000000 810.000000"
 preserveAspectRatio="xMidYMid meet">
<metadata>
Created by potrace 1.16, written by Peter Selinger 2001-2019
</metadata>
<g transform="translate(0.000000,810.000000) scale(0.100000,-0.100000)"
fill="#000000" stroke="none">
<path d="M8283 8087 c-2 -4 -19 -13 -37 -21 -17 -7 -45 -28 -60 -47 -24 -28
-28 -40 -24 -79 6 -61 53 -164 70 -154 7 4 2 -5 -11 -19 -30 -33 -42 -36 -15
-4 l19 22 -24 -20 c-33 -27 -61 -92 -61 -140 0 -42 29 -117 51 -130 8 -6 10
-4 4 6 -8 12 -6 12 8 0 18 -15 23 -26 7 -16 -5 3 -10 2 -10 -3 0 -11 73 -73
106 -90 16 -8 20 -19 18 -44 -3 -30 -3 -31 5 -8 l9 25 0 -25 c0 -14 -4 -38 -8
-55 -7 -29 -8 -29 -10 -5 -2 24 -3 24 -10 -5 -4 -16 -8 -43 -8 -60 1 -28 1
-28 7 5 3 19 6 -27 6 -102 0 -75 -3 -129 -8 -120 -5 11 -6 9 -2 -8 2 -14 5
-29 5 -35 0 -5 4 -4 9 4 6 10 12 -2 20 -40 9 -43 9 -64 -3 -104 -8 -27 -15
-41 -16 -30 l-1 20 -9 -20 c-5 -11 -9 -29 -9 -40 l0 -20 9 20 9 20 -1 -20 c0
-11 -4 -33 -8 -50 -7 -28 -8 -29 -10 -5 l-2 25 -8 -25 c-4 -14 -8 -43 -8 -65
l1 -40 7 40 c4 26 6 3 6 -65 0 -59 -3 -92 -7 -75 l-7 30 0 -30 c0 -16 3 -39 8
-50 l9 -20 1 20 c2 17 3 16 10 -5 11 -34 11 -60 0 -35 -5 13 -9 14 -9 5 0 -23
17 -59 19 -40 2 17 38 -76 39 -100 1 -13 0 -13 -9 0 -9 13 -10 13 -10 0 0 -8
5 -22 10 -30 9 -13 10 -13 10 0 0 13 1 13 10 0 5 -8 10 -22 10 -30 0 -13 -1
-13 -10 0 -12 18 -12 2 0 -25 6 -13 9 -15 9 -5 1 13 2 13 11 0 5 -8 10 -22 10
-30 0 -13 -2 -13 -11 0 -9 12 -10 12 -5 -3 3 -10 6 -24 6 -30 0 -8 3 -7 9 2 6
9 17 -11 35 -65 14 -43 22 -74 17 -68 -5 5 -16 33 -26 62 -9 29 -19 52 -21 50
-1 -2 9 -41 23 -87 14 -45 29 -77 33 -71 11 17 27 -60 20 -95 -3 -16 -11 -29
-17 -28 -12 2 -28 -46 -18 -55 3 -3 5 2 5 11 0 9 4 19 10 22 16 10 -1 -28 -22
-48 -10 -10 -18 -25 -18 -35 0 -15 2 -15 11 -2 8 11 9 9 4 -10 -4 -14 -12 -29
-17 -35 -6 -6 -7 -3 -3 10 6 19 6 19 -5 1 -9 -13 -9 -20 -2 -25 7 -4 8 -12 2
-21 -9 -13 -10 -13 -10 0 0 13 -1 13 -10 0 -5 -8 -10 -22 -10 -30 0 -13 2 -13
11 0 9 12 10 12 5 -3 -3 -10 -6 -21 -6 -23 0 -3 -4 -3 -9 0 -9 6 -51 -82 -51
-108 0 -9 12 -28 28 -44 15 -15 20 -19 12 -8 -12 17 -9 16 13 -3 30 -27 33
-32 15 -29 -8 2 -13 -6 -12 -19 0 -12 -3 -20 -7 -17 -12 7 -101 -175 -95 -193
3 -8 2 -12 -3 -8 -5 3 -21 -20 -35 -51 -30 -64 -32 -76 -11 -48 9 12 7 -1 -7
-34 -11 -29 -23 -51 -25 -48 -3 2 1 14 7 26 6 12 9 24 6 27 -5 6 -9 -1 -52
-115 -25 -66 -30 -87 -14 -62 9 13 10 13 10 0 0 -8 -5 -22 -10 -30 -9 -13 -10
-13 -11 0 -1 19 -18 -18 -18 -40 0 -9 4 -8 9 5 13 31 10 7 -10 -80 -12 -54
-19 -70 -20 -50 l-2 30 -8 -30 c-4 -16 -8 -46 -8 -65 l1 -35 7 35 c10 43 1
-113 -10 -190 -7 -43 -8 -34 -5 45 l4 100 -10 -75 c-5 -41 -8 -89 -6 -107 1
-17 -1 -31 -6 -30 -6 1 -18 -20 -27 -47 -10 -27 -30 -64 -44 -83 -15 -18 -24
-37 -21 -42 3 -5 0 -13 -6 -17 -8 -5 -10 -2 -5 7 4 8 -2 3 -14 -10 -11 -13
-19 -30 -16 -38 3 -7 0 -12 -7 -10 -7 1 -12 -8 -11 -20 0 -12 -3 -20 -6 -18
-11 7 -29 -41 -35 -88 -4 -35 -3 -37 4 -12 15 53 11 -4 -8 -115 -10 -58 -20
-91 -21 -75 l-2 30 -8 -30 c-4 -16 -8 -41 -8 -55 l0 -25 8 25 c6 20 8 21 8 5
0 -11 -4 -33 -8 -50 -7 -28 -8 -28 -9 -5 -1 16 -11 -3 -25 -50 -12 -41 -35
-104 -49 -139 -29 -69 -33 -85 -16 -61 9 13 10 13 6 0 -2 -8 -9 -15 -16 -15
-12 0 -31 -23 -31 -38 0 -5 6 -5 13 -1 7 4 9 3 4 -2 -5 -5 -12 -9 -15 -9 -9 0
-92 -90 -92 -99 0 -4 5 -4 10 -1 16 10 11 -1 -7 -16 -14 -12 -16 -12 -9 1 4 8
-2 4 -13 -9 -12 -13 -21 -36 -21 -52 l0 -29 -105 0 c-67 0 -105 4 -105 11 0 5
-4 8 -9 5 -5 -3 -11 1 -14 8 -3 8 -1 16 5 18 8 3 8 15 0 43 l-11 40 4 -40 c3
-27 2 -34 -4 -20 -14 35 -21 86 -11 80 6 -3 10 -2 10 4 0 5 14 18 30 28 17 9
30 21 30 26 0 4 -15 -3 -33 -17 -19 -15 -40 -26 -48 -26 -8 0 0 7 16 16 17 8
46 30 65 47 19 18 26 22 16 10 -11 -13 -15 -23 -10 -23 14 0 36 39 29 51 -4 5
-1 8 6 7 6 -2 14 3 17 11 3 9 0 11 -8 6 -9 -6 -11 -4 -5 6 5 7 12 59 16 114
l7 100 -2 -103 c-1 -57 1 -95 5 -85 10 25 9 174 -1 198 -6 13 -9 15 -9 5 -1
-13 -2 -13 -11 0 -13 20 -12 33 1 24 7 -4 10 -1 7 7 -3 8 -10 13 -16 12 -5 -1
-16 5 -24 15 -12 16 -11 16 6 2 11 -8 17 -10 15 -3 -5 14 -108 123 -117 123
-3 0 14 -21 38 -47 40 -42 38 -41 -13 7 -53 50 -77 79 -42 50 34 -28 12 9 -27
45 -41 38 -42 39 -13 5 l30 -35 -38 34 c-36 34 -47 48 -27 36 13 -8 13 5 0 25
-9 13 -10 13 -11 0 0 -10 -3 -8 -9 5 -12 27 -12 43 0 25 14 -21 12 -9 -5 41
-9 24 -22 47 -30 52 -8 4 -15 13 -15 20 0 7 4 6 10 -3 15 -24 12 4 -6 46 -9
22 -21 50 -26 64 -7 18 -11 21 -17 11 -6 -10 -10 -9 -14 4 -4 9 -3 14 2 10 5
-3 19 35 30 84 24 100 28 166 9 155 -7 -4 -8 -3 -4 5 4 6 11 9 15 6 12 -7 63
73 56 86 -4 5 -1 8 6 7 6 -2 14 3 17 11 3 9 0 11 -8 6 -9 -5 -11 -4 -6 4 4 6
11 9 16 6 12 -7 72 111 99 195 24 71 22 95 -2 28 -9 -24 -16 -36 -16 -28 0 20
38 109 39 90 0 -13 1 -13 10 0 13 20 12 33 -2 24 -7 -4 -8 -3 -4 5 4 6 11 9
16 6 5 -3 14 3 19 14 14 26 14 34 -1 25 -9 -5 -9 -2 1 9 16 20 25 22 16 5 -4
-7 9 5 28 27 l34 39 48 -42 c27 -24 78 -57 114 -75 61 -29 74 -32 166 -32 95
0 104 2 175 37 81 39 205 150 196 174 -3 7 0 16 6 20 7 5 8 2 3 -7 -7 -12 -6
-12 7 -1 22 18 91 159 85 174 -3 8 -6 7 -6 -4 -1 -9 -5 -19 -10 -22 -5 -4 -4
10 2 29 6 20 14 31 17 24 4 -6 10 -1 13 13 9 33 7 47 -3 23 -6 -13 -7 0 -2 35
10 82 7 249 -7 300 -23 87 -23 86 -12 70 16 -22 13 2 -4 44 -9 20 -19 35 -24
32 -4 -3 -7 5 -7 17 1 12 -4 22 -11 22 -6 0 -15 4 -20 9 -5 5 -3 6 5 2 19 -11
14 9 -9 35 -11 13 -17 17 -13 9 7 -13 5 -13 -9 -1 -18 15 -23 26 -7 16 6 -3
10 -2 10 3 0 20 -140 140 -192 166 -115 56 -249 56 -364 0 -54 -26 -194 -146
-194 -166 0 -6 7 -5 18 3 15 11 15 11 4 -1 -7 -8 -18 -15 -25 -15 -7 0 -24
-22 -39 -50 -29 -53 -34 -70 -18 -60 6 3 7 -1 4 -9 -3 -9 -10 -13 -15 -10 -10
5 -25 -28 -34 -74 -5 -25 -5 -25 4 -4 15 33 21 27 10 -10 -5 -18 -9 -34 -9
-35 0 -2 -3 -2 -7 -2 -5 1 -33 0 -63 -2 l-55 -2 65 -6 c58 -6 51 -7 -70 -14
-130 -6 -428 -20 -750 -33 l-155 -6 -12 43 c-6 24 -15 53 -18 64 -6 16 -5 17
4 5 21 -29 12 9 -14 61 -14 27 -30 47 -35 44 -5 -3 -12 0 -16 6 -5 8 -3 9 6 4
8 -5 11 -3 8 6 -3 8 -10 14 -16 14 -6 0 -17 7 -24 15 -11 12 -11 12 5 1 9 -7
17 -9 17 -4 0 15 -109 116 -156 146 -145 91 -335 87 -481 -10 -66 -44 -166
-151 -159 -170 3 -8 1 -11 -4 -8 -8 5 -61 -84 -60 -102 1 -4 12 13 26 40 34
66 38 59 6 -12 -15 -32 -30 -54 -33 -49 -22 33 -50 -236 -32 -315 6 -26 8 5 8
105 1 90 5 152 13 168 10 22 11 21 4 -15 -9 -53 -9 -240 1 -290 5 -28 5 -36
-2 -25 -10 13 -11 13 -11 0 0 -8 5 -22 10 -30 9 -13 10 -13 10 0 0 8 9 -5 20
-29 25 -55 25 -67 0 -21 -23 42 -26 36 -5 -14 9 -20 20 -34 25 -31 5 3 12 0
16 -6 5 -8 3 -9 -6 -4 -8 5 -11 3 -8 -6 3 -8 10 -13 16 -12 6 2 9 -4 6 -11 -7
-18 111 -144 158 -169 31 -17 31 -17 8 0 -14 10 -50 42 -80 72 l-55 54 55 -50
c112 -101 217 -139 353 -130 61 4 94 13 152 40 53 26 77 32 81 24 4 -7 4 -9
-1 -5 -4 4 -33 -6 -64 -22 -107 -56 -247 -64 -358 -22 -29 11 -51 16 -48 11 3
-5 35 -18 71 -29 113 -34 251 -22 337 31 18 10 37 19 43 19 6 0 21 -23 33 -50
12 -28 26 -48 30 -45 5 3 12 -2 15 -11 9 -24 7 -31 -4 -14 -11 17 -13 1 -4
-25 5 -11 9 -13 14 -6 3 7 11 -4 17 -24 6 -19 7 -33 2 -29 -5 3 -9 12 -9 21 0
9 -2 14 -5 11 -8 -7 5 -58 14 -56 17 2 25 -3 14 -10 -7 -4 -10 -17 -6 -31 3
-14 8 -18 13 -11 4 6 14 -8 23 -32 13 -34 14 -39 2 -24 -8 11 -15 24 -15 30 0
5 -3 7 -6 4 -7 -8 13 -47 39 -75 20 -23 44 -32 32 -13 -10 16 1 11 16 -7 10
-11 10 -14 2 -9 -7 4 -13 5 -13 2 0 -10 82 -58 88 -52 3 3 1 6 -4 6 -5 0 -20
10 -34 21 l-25 21 32 -18 c17 -11 32 -22 32 -26 3 -22 0 -29 -8 -24 -10 6 -25
-43 -16 -52 3 -3 5 2 5 11 0 9 4 18 9 21 5 3 2 -15 -6 -42 -23 -74 -21 -150 5
-199 12 -24 20 -43 17 -43 -3 0 -17 24 -30 53 -14 28 -25 45 -25 37 0 -23 86
-185 98 -185 6 0 14 -4 19 -9 5 -5 3 -6 -4 -2 -17 9 -16 1 2 -35 9 -16 20 -27
25 -24 5 3 12 0 16 -6 5 -8 3 -9 -6 -4 -8 5 -11 3 -8 -6 3 -8 11 -13 17 -11 7
1 10 -2 6 -8 -8 -13 43 -102 55 -95 5 3 12 0 16 -6 5 -8 3 -9 -6 -4 -10 6 -11
4 -6 -11 5 -10 9 -25 9 -31 0 -7 7 -13 14 -13 8 0 11 5 8 10 -3 6 -4 10 -1 10
3 0 10 -8 15 -18 9 -17 7 -18 -52 -5 -240 50 -631 23 -727 -50 -9 -7 -3 0 14
15 17 16 25 28 19 28 -20 0 -83 -79 -83 -106 0 -33 22 -73 56 -104 l29 -25
-20 25 -20 25 28 -24 c27 -24 36 -38 18 -26 -6 3 -9 -4 -8 -15 1 -11 7 -20 15
-20 8 0 10 5 6 13 -4 6 7 -1 24 -17 32 -30 41 -43 22 -31 -26 16 -2 -16 83
-110 50 -57 96 -104 102 -104 5 -1 -9 18 -30 42 -25 26 -18 22 18 -13 56 -53
69 -68 46 -54 -7 4 -10 1 -7 -7 3 -8 11 -13 17 -11 7 1 10 -2 7 -6 -3 -5 4
-18 17 -28 21 -19 21 -19 7 1 -15 20 -14 20 8 1 23 -20 30 -32 10 -20 -8 5 -9
2 -5 -9 4 -11 -11 -31 -50 -67 -52 -46 -61 -50 -102 -48 l-46 2 46 3 c39 3 54
12 100 54 l54 51 -55 -46 c-40 -34 -63 -46 -87 -46 -20 0 -33 5 -33 13 0 8 -4
7 -10 -3 -7 -12 -11 -8 -16 18 -4 18 -11 35 -15 38 -14 9 0 24 16 17 8 -3 26
-2 40 1 19 5 25 13 26 34 l1 27 9 -25 c7 -23 8 -24 6 -2 -1 12 -5 21 -8 20 -3
-2 -20 9 -38 24 -26 22 -36 26 -52 18 -10 -6 -19 -8 -19 -6 0 3 9 10 19 15 14
8 26 6 47 -10 l29 -21 -28 26 c-24 22 -31 24 -52 14 -14 -6 -25 -14 -25 -18 0
-3 -7 -15 -15 -26 -15 -17 -15 -16 -1 12 14 30 14 33 -10 65 -14 19 -29 34
-34 34 -4 0 -12 4 -17 9 -5 5 -2 6 6 1 9 -5 12 -3 9 6 -3 8 -10 14 -16 14 -7
0 -12 3 -12 8 0 41 0 42 9 28 7 -10 10 -6 15 15 12 64 11 99 -4 96 -8 -2 -25
2 -38 9 -19 11 -25 11 -31 0 -7 -11 -10 -11 -14 0 -3 8 -6 4 -6 -9 -1 -16 3
-21 12 -16 9 6 9 4 -1 -8 -19 -24 -88 -31 -117 -12 -26 17 -70 11 -58 -9 4 -7
-1 -6 -10 2 -12 10 -14 17 -7 26 12 14 58 8 81 -11 11 -10 26 -11 60 -4 l44 9
-47 -4 c-31 -3 -50 0 -57 9 -7 8 -22 17 -35 20 -19 5 -23 11 -18 28 5 21 6 21
13 2 9 -22 10 -20 14 23 2 21 -1 30 -8 26 -6 -3 -7 -1 -3 6 4 6 11 9 16 6 13
-8 50 45 49 69 l-2 21 -4 -21 c-2 -12 -14 -30 -26 -40 -22 -19 -22 -19 -4 2
24 29 22 54 -5 55 -21 0 -21 1 -4 8 14 5 16 10 8 15 -7 4 -12 4 -12 -1 0 -4
-4 -2 -9 6 -8 12 -12 12 -24 3 -8 -7 -21 -11 -28 -10 -7 2 -15 -5 -17 -14 -3
-14 1 -16 15 -12 16 6 15 5 -2 -9 -11 -9 -28 -17 -37 -17 -14 0 -16 6 -11 30
5 26 2 30 -15 30 -12 0 -24 4 -27 10 -3 5 0 7 9 4 11 -4 13 0 9 16 -4 16 -8
18 -14 8 -7 -11 -9 -11 -9 0 0 7 14 25 30 39 29 24 42 51 18 37 -8 -4 -10 -3
-5 2 5 5 14 9 20 9 7 0 12 9 12 20 0 11 -5 20 -12 20 -6 0 -15 4 -20 9 -5 5
-3 6 5 2 6 -4 12 -3 12 2 0 15 -52 21 -75 10 -11 -6 -30 -19 -41 -30 -16 -15
-24 -16 -29 -7 -5 7 -4 10 3 5 6 -3 14 -1 18 5 5 8 -1 10 -20 7 -14 -3 -26 -2
-26 3 0 4 12 9 28 11 18 2 27 8 26 20 -1 10 2 15 7 12 5 -3 9 2 9 11 0 9 -4
13 -10 10 -5 -3 -10 -1 -10 5 0 7 -7 10 -15 7 -8 -4 -17 -2 -20 4 -4 5 -3 9 2
8 4 -1 15 1 23 4 8 3 29 7 45 9 19 2 30 9 30 18 0 17 31 15 53 -2 20 -17 64
29 52 53 -8 14 -3 20 30 36 41 19 48 27 28 39 -7 5 -8 2 -3 -7 6 -11 5 -12 -6
-1 -7 6 -30 12 -51 12 -21 0 -38 4 -38 10 0 5 8 6 18 3 9 -4 0 8 -20 26 -35
31 -40 32 -72 21 -45 -15 -103 -79 -112 -124 -7 -40 -19 -47 -27 -15 -3 12
-10 18 -15 15 -6 -3 -13 1 -16 10 -4 9 -2 13 5 8 7 -4 10 -1 7 7 -3 8 -9 14
-14 14 -5 1 -19 6 -31 13 -12 6 -30 9 -40 6 -10 -3 -14 -2 -8 3 15 12 20 33
19 88 -1 46 -4 52 -49 92 -27 23 -53 41 -59 40 -5 -1 -11 7 -13 18 l-3 20 10
-20 10 -20 -3 20 c-1 11 -9 20 -17 20 -8 0 -15 7 -15 15 0 8 -7 15 -15 15 -8
0 -15 -7 -15 -15 0 -8 -7 -15 -15 -15 -8 0 -17 -11 -18 -24 -3 -17 0 -21 10
-16 7 4 0 -5 -15 -19 -20 -19 -39 -26 -68 -26 -47 0 -53 -22 -11 -44 15 -8 21
-15 14 -16 -7 0 -24 11 -37 25 -14 13 -25 20 -25 16 0 -5 29 -33 65 -62 52
-43 65 -60 66 -84 l1 -30 8 30 8 30 1 -32 c1 -20 -4 -33 -11 -33 -7 0 0 -12
15 -25 15 -14 36 -25 45 -25 9 1 2 7 -15 15 -18 8 -33 16 -33 19 0 3 16 -2 36
-10 29 -12 39 -13 52 -2 13 11 14 11 7 -2 -5 -9 0 -8 13 4 27 23 28 30 5 22
-15 -5 -15 -4 1 9 13 10 23 11 31 5 7 -5 16 -6 20 -2 5 4 5 1 1 -6 -5 -7 -10
-11 -14 -8 -6 6 -31 -24 -32 -38 0 -5 8 -2 18 5 15 13 16 12 3 -4 -22 -28 -51
-41 -64 -28 -23 23 -77 6 -77 -23 0 -5 7 -1 15 10 14 18 14 17 5 -9 -20 -55
-13 -72 44 -117 50 -38 54 -44 44 -65 -6 -14 -15 -22 -19 -19 -13 8 -31 45
-22 43 4 -1 15 -1 23 0 11 1 10 5 -5 14 -11 6 -22 12 -25 13 -3 0 -13 4 -24 9
-26 11 -50 -6 -57 -41 -6 -26 -7 -27 -8 -5 0 14 7 34 17 45 17 21 17 21 -5 2
-13 -11 -23 -30 -23 -43 0 -14 -4 -21 -10 -18 -6 3 -10 0 -10 -8 0 -8 9 -13
23 -12 12 1 30 -5 40 -13 15 -13 24 -14 48 -5 20 8 27 8 22 0 -4 -6 0 -8 10
-4 25 9 21 2 -10 -18 -14 -10 -48 -24 -75 -31 -44 -11 -52 -11 -68 4 -34 31
-50 42 -56 41 -3 0 -8 2 -10 4 -3 3 11 3 30 0 33 -4 36 -3 36 21 0 23 -4 26
-36 26 -19 0 -33 -4 -29 -9 8 -15 -7 -19 -35 -10 -23 8 -23 8 5 5 28 -4 28 -3
10 10 -10 8 -23 20 -28 26 -6 9 -7 6 -2 -7 6 -20 6 -20 -13 0 -10 11 -16 21
-11 23 4 2 0 11 -9 21 -11 11 -20 14 -25 7 -5 -7 -7 -2 -4 10 5 22 -18 29 -40
12 -7 -5 -17 -7 -22 -4 -5 4 -12 2 -16 -4 -8 -13 13 -52 25 -45 5 3 12 0 16
-6 5 -8 3 -9 -6 -4 -8 5 -11 3 -8 -6 3 -8 10 -14 15 -14 6 0 15 -4 20 -9 5 -5
3 -6 -5 -2 -10 6 -12 -10 -11 -73 2 -45 -1 -84 -4 -88 -4 -3 -7 6 -7 20 0 22
-5 27 -24 27 -13 0 -31 -10 -41 -23 -17 -22 -17 -22 -2 3 8 13 25 28 38 31 23
7 23 7 2 8 -12 1 -30 -10 -42 -25 -23 -30 -29 -60 -8 -48 7 5 7 1 -2 -10 -15
-18 -55 -15 -76 5 -6 6 1 6 18 0 41 -16 57 -13 22 4 -16 7 -41 29 -55 49 -14
19 -29 36 -34 36 -5 0 1 -12 15 -27 13 -16 2 -8 -24 17 -45 43 -58 58 -37 45
17 -11 11 7 -7 21 -10 7 -18 21 -18 31 0 10 -5 18 -12 18 -6 0 -15 4 -20 9 -5
5 -3 6 5 2 8 -5 12 0 12 14 0 24 -51 80 -72 80 -7 -1 -1 -8 15 -16 15 -8 27
-17 27 -20 0 -2 -9 0 -19 6 -30 15 -41 12 -42 -12 0 -22 -1 -22 -9 -3 -12 28
-12 2 0 -30 5 -14 14 -24 18 -21 5 3 8 -5 8 -17 -1 -12 4 -22 11 -22 6 0 15
-4 20 -9 5 -5 3 -6 -4 -2 -8 4 -13 1 -13 -8 0 -8 12 -23 28 -31 15 -9 19 -14
10 -11 -15 4 -16 2 -2 -37 19 -53 42 -89 54 -82 5 3 12 0 16 -6 4 -8 3 -9 -4
-5 -21 12 -13 -10 10 -30 13 -12 18 -13 13 -4 -8 13 -7 13 9 1 10 -8 13 -17 7
-20 -14 -9 -7 -44 10 -49 11 -3 11 -1 -1 7 -21 15 -6 14 33 -2 18 -8 39 -22
47 -32 9 -11 10 -16 3 -11 -22 12 -14 -10 9 -30 22 -19 23 -19 8 1 -15 20 -14
20 8 1 23 -20 30 -32 12 -21 -17 10 -11 -12 7 -26 9 -8 14 -9 10 -3 -5 9 3 10
28 4 31 -7 35 -6 36 14 0 21 0 21 9 -1 10 -25 25 -30 36 -11 5 8 2 9 -9 5 -11
-4 -17 -1 -17 7 0 9 7 12 20 9 12 -3 19 -10 17 -16 -5 -17 -67 -48 -79 -41 -7
5 -9 1 -5 -9 5 -14 -4 -16 -76 -13 -45 2 -68 2 -52 -1 17 -2 77 -12 135 -23
58 -11 131 -21 164 -24 34 -2 62 -9 67 -17 5 -8 9 -9 9 -3 0 6 -10 24 -22 40
-13 15 -17 25 -10 20 8 -4 12 -1 12 9 0 9 -4 14 -9 11 -5 -3 -11 3 -14 14 -5
21 17 40 46 40 8 0 20 7 27 15 10 13 9 15 -9 15 -11 0 -21 3 -21 8 0 4 15 7
34 7 19 0 33 -2 31 -4 -3 -2 0 -12 6 -22 10 -20 2 -27 -38 -33 -19 -3 -32 -36
-13 -36 6 0 8 5 4 12 -5 7 -3 8 5 4 9 -6 8 -13 -5 -27 -17 -19 -17 -20 2 -13
16 5 15 4 -3 -10 -29 -21 -29 -30 0 -57 12 -12 17 -19 11 -16 -7 4 -18 -1 -25
-10 -12 -15 -12 -16 4 -10 10 4 16 3 12 -2 -3 -5 -20 -13 -38 -16 -17 -4 -37
-11 -42 -16 -7 -5 -11 0 -12 14 -1 12 1 17 5 11 4 -7 15 -8 27 -3 16 6 17 8 3
8 -9 1 -22 9 -27 19 -6 9 -11 12 -11 5 0 -7 -11 -1 -25 12 -13 14 -33 25 -43
25 -24 0 -46 -25 -36 -41 5 -8 3 -9 -5 -5 -7 5 -10 15 -7 25 5 13 3 12 -8 -3
-18 -22 -36 -13 -35 17 1 20 2 20 9 -3 5 -17 8 -19 9 -7 1 11 10 17 29 18 34
2 -141 38 -185 39 -20 0 -33 -5 -33 -12 0 -10 -2 -10 -9 0 -7 11 -9 11 -14 -2
-4 -11 -1 -16 10 -16 9 0 13 -3 10 -7 -12 -11 -56 19 -59 41 -4 25 -35 29 -62
7 -18 -15 -18 -15 -11 9 7 23 7 24 -11 10 -18 -14 -18 -14 -3 5 9 11 19 40 23
64 7 47 0 59 -59 86 -16 8 -23 14 -14 15 9 0 28 -9 42 -20 14 -11 29 -20 33
-20 4 0 -8 11 -26 25 -37 27 -65 29 -65 5 0 -8 -6 -15 -13 -15 -16 0 -42 -67
-42 -108 0 -20 4 -26 13 -21 8 6 8 3 -2 -9 -10 -13 -17 -14 -35 -5 -31 16 -34
21 -7 13 21 -6 19 -3 -11 24 -37 32 -64 44 -31 14 10 -10 14 -15 9 -10 -18 14
-36 7 -36 -14 0 -11 -4 -18 -9 -14 -5 3 -12 1 -15 -4 -4 -5 4 -11 16 -13 21
-3 21 -4 -4 -9 -16 -4 -26 -2 -25 5 1 5 -5 10 -13 11 -10 0 -14 8 -12 23 3 18
-2 22 -22 22 -16 0 -26 -6 -26 -15 0 -8 -4 -15 -9 -15 -4 0 -6 10 -4 23 4 20
9 23 36 19 18 -3 30 -2 27 1 -3 2 -23 7 -45 10 -22 3 -48 9 -57 12 -11 4 -36
-3 -64 -19 -26 -14 -53 -26 -61 -26 -20 0 -27 -28 -12 -48 12 -15 12 -16 -2
-5 -9 7 -18 10 -22 7 -3 -3 -27 9 -54 28 -26 18 -57 36 -68 40 -18 5 -18 6 -2
7 11 1 31 -8 46 -18 19 -14 31 -17 42 -10 11 8 10 9 -5 7 -13 -2 -20 4 -21 19
-1 13 -5 26 -10 30 -4 5 -4 -2 -1 -14 8 -24 -3 -30 -20 -13 -5 5 -19 11 -31
13 -13 2 -26 7 -30 12 -5 4 -2 5 4 1 31 -17 9 16 -37 57 -49 44 -49 45 -30 62
22 20 27 40 8 29 -8 -4 -10 -3 -5 2 5 5 13 9 19 9 6 0 15 10 19 23 6 15 5 21
-1 17 -6 -4 -10 9 -10 32 0 30 3 35 11 23 9 -13 10 -13 6 0 -2 8 -10 15 -18
15 -8 0 -14 7 -14 15 0 12 -15 15 -70 16 l-70 1 70 -7 70 -7 -77 1 c-42 0 -76
-1 -76 -4 0 -3 -1 -16 -2 -30 l-2 -25 -8 25 -8 25 -1 -26 c-1 -31 36 -69 68
-69 17 0 21 -4 17 -17 -3 -10 -1 -25 4 -33 5 -8 10 -11 10 -6 0 5 7 3 15 -4
12 -10 18 -10 33 1 15 12 16 12 5 -2 -8 -9 -30 -16 -54 -17 -22 -1 -47 -6 -56
-10 -9 -5 7 -7 39 -4 51 4 55 2 98 -38 l45 -42 -44 36 c-34 28 -54 36 -83 36
-53 0 -78 -15 -79 -48 l-1 -27 -8 30 -8 30 -1 -31 c-1 -22 7 -38 31 -60 17
-16 28 -23 23 -15 -5 9 -3 12 6 9 8 -3 13 -10 12 -16 -1 -6 7 -7 19 -4 21 5
21 6 2 14 -15 6 -13 7 11 6 17 -2 42 -12 56 -23 15 -11 35 -26 45 -33 16 -10
15 -11 -6 -1 -14 6 -33 18 -42 27 -10 8 -18 11 -18 6 0 -9 69 -58 82 -59 3 0
10 -4 15 -9 5 -5 3 -6 -4 -2 -7 4 -13 2 -13 -5 0 -6 8 -9 20 -6 10 3 27 -1 37
-9 16 -11 14 -12 -20 -7 -28 4 -37 2 -37 -8 0 -11 -2 -11 -10 1 -9 13 -10 13
-10 -1 0 -21 45 -62 62 -56 9 4 8 6 -3 6 -9 1 -22 8 -29 16 -10 12 -7 12 19
-1 17 -8 34 -20 37 -26 4 -7 2 -8 -4 -4 -8 4 -12 0 -12 -12 0 -15 -5 -18 -24
-15 -14 3 -35 -2 -48 -11 -12 -9 -17 -16 -11 -16 7 0 15 5 19 11 4 7 20 9 40
6 25 -4 34 -2 37 11 4 15 5 15 6 0 0 -10 7 -18 14 -18 6 0 23 -10 37 -21 l25
-20 -25 12 c-22 11 -23 10 -13 -3 11 -12 9 -18 -7 -33 -11 -10 -20 -23 -20
-28 0 -6 15 2 33 19 l32 29 -29 -32 c-16 -18 -32 -32 -35 -31 -3 0 -28 -1 -56
-2 l-50 -3 55 -7 55 -7 -52 -1 c-28 -1 -55 3 -58 8 -8 13 -70 13 -98 -1 -21
-10 -21 -9 -3 5 13 11 40 15 83 15 53 -1 68 3 88 21 23 22 40 70 24 70 -5 0
-9 -11 -9 -23 0 -42 -31 -59 -103 -58 -50 1 -70 -4 -89 -19 -15 -12 -34 -17
-49 -14 -20 4 -19 3 6 -11 17 -8 22 -13 13 -11 -51 14 -90 17 -101 8 -7 -6
-67 -10 -147 -9 -152 1 -247 -9 -297 -30 -19 -8 -32 -9 -28 -4 3 7 -3 11 -15
11 -11 0 -32 7 -45 16 -24 16 -26 15 -59 -14 l-34 -30 -403 -6 c-222 -3 -615
-8 -874 -11 -1248 -14 -1480 -18 -1495 -28 -13 -10 -13 -9 0 5 13 15 85 17
670 23 360 4 657 10 660 13 3 2 -292 1 -655 -3 -575 -6 -662 -9 -677 -22 -10
-9 -15 -20 -12 -24 3 -5 58 -10 122 -11 l117 -2 -115 -6 -115 -6 108 -3 c131
-4 123 -3 139 -19 7 -7 9 -13 3 -12 -22 5 -25 -1 -14 -21 8 -17 8 -20 -1 -14
-8 5 -11 3 -8 -6 3 -8 10 -13 15 -12 6 1 21 -10 34 -24 13 -14 19 -23 13 -20
-7 4 -14 -2 -17 -14 -5 -20 -4 -20 21 -4 19 12 17 8 -8 -13 -32 -28 -41 -30
-132 -34 -53 -2 -100 -7 -104 -11 -15 -15 9 -21 94 -21 69 0 74 0 22 -3 -36
-2 -68 -7 -72 -11 -4 -4 20 -5 54 -4 58 4 61 3 55 -18 -5 -18 -2 -21 14 -17
10 3 21 1 24 -3 3 -5 -17 -8 -45 -8 -62 2 -87 -16 -45 -32 19 -7 59 -7 134 0
73 8 385 10 1001 6 492 -4 1102 -2 1355 2 398 8 329 9 -505 7 l-965 -3 720 8
c1630 18 2904 27 4008 26 643 -1 1174 2 1180 7 7 4 -433 5 -978 3 -985 -4
-986 -4 -255 4 2223 25 2819 29 3455 24 385 -3 916 -1 1180 4 432 8 385 9
-475 7 l-955 -3 700 8 c385 4 1197 13 1805 19 653 7 1109 16 1114 21 15 15 2
21 -42 23 -54 2 -44 13 23 28 68 15 65 24 -4 11 -28 -5 -48 -6 -46 -2 3 4 27
10 55 14 38 5 50 11 50 24 0 15 2 15 11 2 9 -13 10 -13 6 0 -4 15 -21 17 -67
6 -22 -5 -21 -5 3 5 15 6 24 15 21 20 -3 6 -12 5 -21 -3 -15 -12 -15 -11 -2 9
11 18 11 29 1 55 -7 20 -8 28 -1 21 6 -6 14 -26 18 -44 4 -18 12 -34 19 -35 7
-1 8 0 2 3 -5 2 -10 14 -10 24 0 11 -7 33 -14 48 -17 32 -11 71 11 71 29 0 59
29 61 61 l3 32 -795 -8 c-436 -4 -796 -3 -799 2 -3 4 142 8 321 8 l327 -1
-315 3 -314 3 -24 28 c-13 15 -20 20 -16 12 7 -13 5 -13 -9 -1 -18 15 -23 26
-7 16 24 -15 7 14 -27 46 l-38 34 30 -35 c29 -34 28 -33 -13 5 -23 21 -42 40
-42 41 0 1 17 1 38 -1 27 -3 32 -2 17 5 -11 5 -31 9 -45 10 -17 2 -20 4 -8 7
10 2 44 -3 75 -12 72 -22 176 -22 226 -1 20 9 56 33 80 54 23 20 33 26 22 13
-11 -13 -38 -37 -59 -52 -21 -16 -34 -29 -29 -29 17 0 112 90 128 121 17 32
19 43 6 35 -5 -4 -7 3 -4 15 4 13 8 17 13 9 12 -20 20 16 19 88 0 37 -4 76 -8
86 -4 11 -6 -20 -5 -70 l2 -89 -8 85 c-4 47 -15 104 -24 128 -8 24 -11 40 -6
37 17 -11 10 8 -29 77 -21 38 -41 65 -44 62 -6 -7 -18 17 -31 66 -6 20 -5 22
4 10 10 -13 11 -12 6 3 -3 10 -6 24 -6 30 0 7 -4 7 -9 -2 -17 -27 -33 60 -41
224 -5 88 -11 176 -14 195 -5 26 -4 30 3 15 l10 -20 0 20 c0 11 -4 29 -9 40
l-9 20 -1 -20 c-1 -11 -10 7 -20 40 -11 32 -17 61 -15 63 2 2 9 -15 16 -37 7
-23 14 -39 17 -36 6 6 -37 127 -51 140 -7 7 -8 4 -3 -7 17 -47 18 -53 5 -33
-7 11 -13 33 -14 50 0 16 -5 30 -12 30 -6 0 -15 4 -20 9 -5 5 -3 6 5 2 16 -9
15 -1 -3 35 -9 16 -20 27 -25 24 -5 -3 -12 0 -16 6 -5 8 -3 9 6 4 8 -5 11 -3
8 6 -3 8 -10 14 -16 14 -5 0 -14 4 -19 9 -5 5 -2 6 6 1 9 -5 12 -3 9 6 -3 8
-10 13 -16 12 -5 -1 -16 5 -24 15 -12 15 -11 16 5 3 30 -24 18 4 -15 35 -27
24 -29 25 -13 4 l20 -25 -28 24 c-27 24 -36 38 -17 26 17 -11 11 11 -8 28 -10
10 -23 14 -28 10 -5 -5 -6 -4 -2 1 9 11 -9 36 -26 36 -6 0 -4 -5 4 -10 8 -5
10 -10 4 -10 -6 0 -21 12 -35 27 -13 14 -18 23 -10 18 10 -6 12 -2 7 13 -4 12
-2 40 5 64 7 24 12 46 11 50 -1 3 23 -9 53 -27 85 -51 164 -54 219 -8 l21 18
-19 -23 c-43 -50 -131 -49 -223 2 -26 15 -39 20 -28 11 72 -59 180 -77 232
-39 70 52 92 130 52 185 -19 27 -49 43 -33 17 4 -6 -4 -3 -18 8 -14 10 -24 21
-22 23 2 2 12 -2 21 -10 15 -11 15 -10 -1 9 -26 30 -35 28 -31 -7 3 -25 1 -29
-16 -26 -10 2 -24 7 -29 10 -6 3 -10 3 -10 0 0 -3 15 -12 33 -20 17 -8 24 -14
15 -15 -9 0 -30 12 -45 26 -15 14 -22 23 -15 19 19 -10 14 14 -8 32 -11 10
-20 27 -19 38 0 20 0 20 10 0 6 -15 7 -11 3 15 -10 53 -23 82 -34 75 -5 -3 -7
0 -4 8 6 17 -56 74 -92 83 -14 4 -37 1 -50 -5 -14 -6 -33 -11 -44 -11 -10 0
-32 -12 -49 -26 l-30 -25 -44 25 c-24 14 -48 26 -53 26 -5 0 15 -14 44 -31
l52 -31 31 26 c17 14 38 26 47 26 8 0 30 5 48 12 39 14 80 0 116 -40 l23 -26
-33 27 c-42 34 -76 43 -108 28 -14 -6 -33 -11 -44 -11 -10 0 -32 -11 -49 -25
l-30 -26 -58 32 c-52 28 -65 30 -124 26 -68 -4 -138 -32 -209 -82 -19 -13 -55
-38 -80 -55 l-45 -31 35 31 c19 17 51 40 70 51 19 11 50 31 69 45 43 31 127
56 189 56 38 0 42 2 24 9 -43 16 -215 -35 -237 -71 -3 -6 -24 -19 -46 -31 -44
-22 -119 -86 -119 -101 0 -5 6 -6 13 -2 7 4 9 3 4 -2 -5 -5 -14 -9 -20 -9 -7
0 -13 -8 -15 -18 -5 -26 7 -69 17 -62 5 2 12 -2 15 -11 3 -8 2 -12 -4 -9 -6 3
-10 0 -9 -7 1 -22 14 -50 24 -48 4 0 16 -23 25 -52 10 -29 21 -62 25 -72 6
-14 5 -17 -3 -12 -16 10 -15 1 3 -35 9 -16 20 -27 25 -24 5 3 12 0 16 -6 4 -8
3 -9 -4 -5 -7 4 -12 2 -12 -3 0 -6 -7 -11 -15 -11 -21 0 -136 -32 -131 -37 2
-2 41 5 86 17 45 12 85 19 87 16 3 -3 -8 -8 -23 -12 -16 -3 -101 -24 -189 -46
-150 -38 -165 -40 -240 -32 -100 11 -394 7 -539 -6 -60 -6 -113 -7 -117 -3 -4
4 -11 22 -14 38 -5 23 -4 26 4 15 10 -13 11 -13 10 0 0 8 -4 24 -9 35 -8 19
-9 19 -9 1 -1 -11 -3 -17 -5 -15 -9 10 -44 149 -35 144 5 -4 9 -13 9 -22 0 -9
2 -14 5 -11 9 9 -6 59 -15 53 -5 -3 -20 32 -34 79 -28 90 -31 110 -16 86 9
-13 10 -13 10 0 0 8 -5 22 -10 30 -9 13 -10 13 -11 0 0 -10 -3 -8 -9 5 -12 28
-12 43 1 25 9 -12 10 -11 6 7 -5 21 -2 23 44 21 68 -1 92 18 313 242 171 173
227 239 226 265 -1 6 -8 -2 -16 -17 -21 -40 -26 -34 -8 9 9 20 14 51 12 69 -2
18 0 30 4 28 4 -3 9 -22 10 -42 1 -36 1 -36 5 -5 4 34 -12 77 -26 69 -5 -3
-17 4 -27 16 -11 12 -13 18 -6 14 21 -13 13 4 -25 49 -20 24 -40 42 -44 39 -9
-5 -23 16 -24 36 0 8 -5 15 -12 15 -6 0 -15 4 -20 9 -5 5 -3 6 5 2 21 -12 13
10 -10 30 -22 19 -23 19 -8 -1 15 -20 14 -20 -8 -1 -23 20 -30 32 -12 21 17
-10 11 12 -7 26 -15 12 -16 12 -8 -1 8 -13 7 -13 -8 -1 -18 15 -23 26 -7 16 6
-3 10 -2 10 3 0 12 -25 33 -32 27 -3 -3 -11 3 -19 12 -13 16 -12 17 4 4 25
-20 20 -1 -8 32 -29 32 -47 37 -19 5 l19 -23 -22 18 c-12 11 -20 24 -18 30 4
12 -48 77 -62 77 -4 0 9 -17 27 -37 19 -21 2 -7 -38 32 -39 38 -72 72 -72 74
0 3 18 -13 40 -34 22 -21 40 -35 40 -29 0 13 -78 78 -126 103 -21 12 -49 21
-62 21 -31 0 -92 29 -99 47 -3 7 -9 10 -15 7 -17 -11 59 -54 112 -64 27 -5 61
-17 75 -26 37 -24 30 -27 -12 -4 -21 11 -48 20 -61 20 -27 0 -75 21 -110 48
l-23 18 33 29 c27 25 29 26 13 5 -18 -23 -17 -23 10 3 27 25 30 33 31 100 l1
72 -7 -65 -6 -65 -2 73 c-2 55 1 72 12 72 13 0 26 26 41 77 6 22 -19 85 -33
81 -4 -1 -43 34 -87 79 -48 48 -102 91 -135 108 -52 26 -57 27 -105 15 -27 -7
-66 -21 -85 -31 -35 -19 -35 -19 -13 0 32 27 126 55 159 47 46 -12 129 -73
198 -147 36 -38 66 -66 66 -61 0 14 -134 142 -186 177 -27 19 -63 37 -80 40
-39 8 -126 -20 -165 -52 -28 -24 -41 -52 -17 -37 7 4 8 3 4 -5 -4 -6 -11 -9
-16 -6 -12 8 -43 -53 -36 -71 3 -7 0 -13 -6 -11 -7 1 -13 -7 -15 -18 -3 -16
-2 -17 6 -5 6 8 11 11 11 5 0 -16 -16 -37 -25 -33 -9 3 -33 -57 -33 -82 0 -8
6 4 15 28 20 58 26 48 7 -13 -8 -27 -12 -55 -9 -63 2 -7 0 -10 -5 -7 -16 10
-12 -7 10 -43 11 -18 21 -49 21 -70 l2 -37 7 35 c7 34 7 34 8 5 1 -31 -16 -83
-17 -55 -1 12 -3 13 -10 1 -6 -9 -11 -10 -15 -2 -4 6 -11 9 -16 6 -16 -10 -47
99 -54 188 -6 72 -5 88 8 93 18 7 36 57 35 98 -1 23 -3 19 -10 -18 -4 -27 -13
-54 -19 -60 -8 -8 -8 -3 0 19 7 17 10 55 6 90 -3 39 -2 51 4 35 l8 -25 0 25
c0 14 -4 36 -8 50 l-8 25 -2 -25 c-1 -14 -10 13 -21 60 -18 86 -24 135 -9 90
l8 -25 0 25 c0 14 -3 34 -8 45 l-9 20 -1 -20 c-2 -17 -3 -16 -10 5 -4 14 -8
34 -8 45 -1 20 0 20 7 0 7 -18 8 -17 13 6 4 22 2 26 -16 22 -18 -3 -18 -2 2 7
13 5 40 22 60 36 l37 26 -30 -28 c-33 -31 -15 -23 23 10 23 20 31 43 10 30 -7
-4 -8 -3 -4 5 4 6 11 9 16 6 11 -7 40 47 39 72 0 17 -1 17 -8 -1 -4 -11 -7 10
-7 50 -1 45 2 60 7 44 5 -17 7 -19 8 -7 2 29 -25 80 -55 107 l-29 25 25 -30
25 -30 -26 23 c-19 16 -25 30 -22 45 5 22 5 22 -11 2 -15 -19 -16 -19 -5 10
20 56 28 121 19 158 -9 41 -4 49 10 15 7 -17 9 -19 9 -6 1 10 -11 30 -26 46
-16 15 -21 19 -13 8 14 -19 13 -19 -1 -9 -8 7 -31 20 -50 28 -33 16 -33 16 -4
10 33 -7 33 -7 -9 19 -18 12 -26 13 -20 5 6 -12 5 -12 -9 -1 -18 15 -215 14
-224 -1z m1023 -2025 c38 -37 57 -56 42 -43 -42 37 -34 17 10 -24 38 -36 65
-48 41 -18 -8 9 16 -7 52 -35 37 -29 70 -60 73 -70 4 -10 -2 -7 -16 9 -13 15
-41 39 -63 54 l-40 27 35 -31 c19 -17 38 -31 42 -31 4 0 14 -13 23 -30 8 -16
20 -29 26 -27 26 5 17 -21 -18 -53 l-38 -35 33 35 c17 20 32 39 32 43 0 3 -18
-13 -40 -37 -38 -41 -52 -64 -30 -51 18 11 11 -1 -12 -21 -22 -19 -23 -19 -8
1 15 20 14 20 -8 1 -23 -20 -31 -42 -9 -30 7 4 9 3 4 -2 -5 -5 -14 -9 -19 -9
-6 0 -13 -6 -16 -14 -3 -8 0 -11 7 -7 17 11 13 0 -6 -15 -14 -12 -16 -12 -9 1
4 8 -2 4 -14 -9 -11 -13 -19 -30 -16 -37 3 -7 0 -16 -6 -20 -7 -5 -8 -2 -4 7
4 8 -2 3 -14 -10 -11 -13 -18 -31 -16 -38 3 -8 2 -11 -3 -8 -5 3 -12 1 -16 -5
-3 -5 -1 -10 6 -10 7 0 10 -3 7 -6 -6 -6 -167 54 -183 68 -5 5 3 4 18 -1 39
-15 45 -14 19 5 -12 8 -22 25 -23 37 -1 22 -1 22 -7 -1 -5 -17 -15 7 -36 89
-26 100 -27 113 -13 123 19 15 69 136 63 153 -3 7 0 12 7 10 7 -1 12 8 11 20
0 12 4 21 10 20 6 -1 11 8 10 20 0 12 3 20 8 17 4 -3 11 2 14 10 3 9 13 16 21
16 8 0 11 5 8 11 -4 6 -14 8 -22 5 -8 -3 -11 -1 -8 4 10 16 17 12 91 -58z
m-2012 -604 c3 -13 6 -34 6 -48 0 -14 6 -49 14 -78 11 -44 11 -54 0 -63 -8 -6
-14 -8 -14 -4 0 5 -9 0 -20 -10 -23 -21 -28 -44 -5 -25 24 20 18 5 -7 -16 -13
-12 -18 -13 -13 -4 5 9 0 8 -13 -4 -24 -21 -31 -46 -7 -26 24 20 18 5 -7 -16
-13 -12 -18 -13 -13 -4 5 9 0 8 -13 -4 -26 -23 -30 -45 -4 -25 15 13 16 12 3
-3 -7 -10 -16 -16 -20 -13 -11 6 -106 -95 -125 -133 -9 -18 -14 -38 -10 -44 4
-6 3 -8 -4 -4 -5 3 -20 -9 -31 -28 -23 -36 -27 -51 -11 -41 16 10 11 -1 -7
-16 -15 -12 -16 -12 -8 1 8 13 7 13 -8 1 -20 -16 -23 -36 -4 -25 6 4 -1 -7
-17 -24 -17 -18 -30 -32 -31 -32 0 0 -19 19 -40 41 -22 23 -34 39 -27 35 7 -5
12 -1 12 9 0 9 -4 13 -10 10 -19 -12 -10 1 17 26 15 13 21 16 14 7 -7 -10 -9
-18 -3 -18 14 0 35 28 28 38 -7 11 18 35 27 26 7 -7 37 49 37 68 -1 7 -7 -2
-15 -19 -8 -18 -16 -33 -19 -33 -3 0 2 16 10 35 22 53 23 219 1 270 -13 31
-14 36 -2 21 8 -11 15 -24 15 -30 0 -5 3 -7 6 -4 10 10 -24 64 -57 92 -35 30
-101 66 -120 66 -7 0 15 -14 48 -30 33 -17 68 -39 79 -51 11 -12 -3 -6 -34 15
-68 45 -138 66 -224 66 -55 0 -84 -7 -152 -35 -47 -19 -94 -35 -105 -35 -12 0
-21 -2 -21 -4 0 -2 -3 -13 -6 -23 -6 -16 -5 -16 9 2 13 16 12 8 -4 -34 -11
-29 -19 -68 -17 -85 2 -22 -1 -31 -12 -31 -11 0 -15 -13 -16 -55 l-1 -55 7 45
c7 41 7 39 5 -18 -3 -69 -9 -83 -28 -62 -10 10 -9 11 2 5 9 -5 12 -3 9 6 -3 8
-10 14 -15 14 -6 0 -15 4 -20 9 -5 5 -2 6 6 1 9 -5 12 -3 9 6 -3 8 -10 13 -16
12 -5 -1 -16 5 -24 15 -12 15 -11 16 5 3 9 -7 17 -9 17 -3 0 14 -26 33 -34 25
-4 -4 -4 0 -1 8 3 9 -2 22 -11 30 -12 9 -15 10 -10 2 11 -19 1 -16 -15 4 -12
14 -12 15 0 9 10 -6 12 -4 7 11 -4 12 4 43 19 77 14 31 25 64 24 74 0 14 -2
14 -9 -3 -6 -13 -7 -5 -3 25 7 58 24 90 18 35 -4 -38 -4 -39 4 -7 5 18 11 35
13 38 6 6 206 19 508 34 195 10 381 22 461 29 10 0 19 -9 23 -21z m1507 -520
c7 -13 18 -27 25 -31 8 -4 14 -14 14 -22 0 -8 11 -49 24 -91 26 -82 22 -92 -7
-16 -10 28 -15 35 -11 17 8 -45 81 -210 92 -208 4 1 8 -8 8 -20 -1 -12 4 -21
11 -20 7 2 10 -3 7 -10 -6 -17 45 -109 56 -102 5 3 12 0 16 -6 4 -8 3 -9 -4
-5 -7 4 -12 4 -12 1 0 -14 30 -63 47 -76 17 -13 17 -13 3 6 -14 18 -14 19 2 7
9 -8 15 -19 12 -26 -3 -7 6 -21 18 -32 l23 -19 -19 23 c-31 36 -13 25 25 -15
18 -21 24 -29 12 -19 -34 28 -28 7 9 -31 34 -35 64 -47 33 -13 -38 42 -7 18
40 -31 28 -29 44 -49 38 -45 -18 10 -16 -2 2 -20 9 -10 14 -32 14 -57 l-2 -42
-7 35 c-7 35 -7 35 -9 5 -1 -48 26 -147 43 -157 9 -5 16 -14 16 -21 0 -7 -4
-6 -10 3 -5 8 -10 10 -10 4 0 -19 51 -104 60 -99 4 3 14 -3 21 -13 13 -15 12
-16 -3 -3 -24 18 -23 6 3 -30 11 -16 24 -27 29 -24 5 3 12 0 16 -6 4 -8 3 -9
-4 -5 -18 11 -14 -10 5 -25 15 -12 16 -12 8 1 -8 13 -7 13 8 1 19 -15 23 -26
6 -15 -7 4 -10 1 -7 -7 3 -8 10 -14 15 -14 19 0 23 -11 5 -13 -9 -1 -39 -6
-67 -11 l-50 -10 65 4 c51 3 58 2 30 -5 -95 -24 -157 -23 -247 3 -48 14 -139
39 -202 55 -107 28 -118 29 -160 16 -25 -8 -61 -23 -80 -34 -28 -18 -32 -26
-29 -50 2 -16 1 -27 -4 -24 -15 9 -8 51 11 68 11 10 46 28 78 42 32 13 51 24
43 24 -23 0 -102 -39 -127 -62 -13 -12 -23 -32 -23 -44 0 -28 56 -95 73 -88
17 6 120 -57 203 -123 38 -31 85 -62 104 -70 47 -21 136 -11 212 24 l59 26 92
-16 c51 -10 113 -18 138 -19 l44 -1 -55 -7 c-52 -6 -53 -7 -15 -10 22 -1 43
-2 47 -1 4 0 2 -13 -4 -29 -13 -38 -20 -39 -13 -2 3 15 -6 0 -20 -32 -29 -68
-29 -70 -13 -60 7 4 8 3 4 -5 -4 -6 -12 -9 -17 -6 -5 4 -14 -7 -21 -22 -7 -15
-14 -30 -16 -33 -2 -3 -254 -8 -560 -11 l-557 -6 580 1 c319 1 540 -2 490 -5
-49 -4 -403 -9 -785 -11 -382 -2 -607 -1 -500 2 l195 6 -191 2 -191 2 -11 33
-11 32 5 -32 c10 -59 -4 -34 -20 35 -10 47 -12 77 -6 102 l10 35 -4 -36 c-2
-19 0 -51 4 -70 7 -26 8 -17 7 43 -1 42 1 74 5 72 4 -3 18 15 32 39 28 48 32
62 14 51 -7 -4 -8 -3 -4 5 4 6 11 9 16 6 5 -3 20 14 34 38 28 48 32 62 14 51
-7 -4 -8 -3 -4 5 4 6 11 9 16 6 4 -3 15 6 24 20 21 32 20 41 -1 24 -16 -11
-16 -11 -5 1 7 8 18 15 24 15 6 0 13 6 16 14 3 9 0 11 -9 6 -8 -5 -11 -4 -6 1
5 5 14 9 20 9 5 0 12 6 15 14 3 9 0 11 -9 6 -8 -5 -11 -4 -6 1 5 5 14 9 20 9
7 0 12 10 11 22 0 12 4 21 10 20 6 -1 11 8 10 20 0 12 3 20 7 17 8 -5 45 84
37 91 -3 3 -10 -13 -17 -36 -7 -22 -14 -39 -17 -37 -2 3 3 26 12 52 9 26 19
44 22 41 3 -3 14 16 24 42 21 57 21 56 6 47 -8 -4 -10 -3 -5 2 5 5 14 9 19 9
6 0 13 6 16 14 3 9 0 11 -8 6 -9 -5 -11 -4 -6 4 4 6 11 9 16 6 5 -3 20 20 34
51 30 65 30 68 14 58 -8 -4 -10 -3 -5 2 5 5 14 9 19 9 6 0 13 6 16 14 3 9 0
11 -9 6 -8 -5 -11 -4 -6 1 5 5 14 9 19 9 6 0 13 6 16 14 3 9 0 11 -9 6 -8 -5
-11 -4 -6 1 5 5 14 9 20 9 7 0 12 10 11 22 0 12 4 21 10 20 6 -1 11 8 10 20 0
12 4 21 10 20 6 -1 11 8 10 20 0 12 4 21 9 20 10 -2 79 162 74 177 -2 6 -14
-19 -26 -56 -12 -37 -27 -70 -31 -73 -5 -3 -3 9 4 27 7 18 21 54 30 81 10 26
22 45 27 42 11 -7 41 65 34 82 -2 8 -1 12 4 8 12 -7 65 101 56 115 -3 6 -1 9
7 8 8 -2 13 6 12 19 0 12 3 20 7 17 12 -7 41 55 35 72 -3 7 -1 13 5 11 5 -1
24 31 42 71 17 39 35 72 39 72 4 0 13 -10 19 -22z m754 -360 c39 -6 174 -10
305 -9 141 1 254 -3 282 -10 26 -6 120 -23 210 -39 106 -19 149 -29 123 -31
-31 -2 -34 -3 -12 -6 15 -2 27 -10 27 -16 0 -9 2 -9 8 0 5 8 16 -15 29 -60 15
-50 17 -66 7 -53 -8 11 -14 14 -14 8 0 -19 71 -92 89 -91 12 0 11 2 -4 8 -11
5 -29 19 -40 32 l-20 24 25 -22 c14 -12 38 -25 53 -29 16 -3 54 -31 85 -61 32
-30 51 -51 43 -47 -9 4 -12 2 -9 -7 3 -8 10 -14 16 -14 5 0 14 -4 19 -9 5 -5
3 -6 -4 -2 -18 10 -17 6 13 -63 15 -33 30 -59 34 -56 4 3 11 -2 14 -11 3 -8 2
-12 -4 -9 -6 3 -10 -1 -10 -9 0 -8 8 -17 18 -19 9 -3 -5 -3 -33 0 -27 2 -178
5 -335 6 -254 2 -289 0 -319 -15 -45 -24 -53 -23 -16 2 17 11 26 20 21 20 -14
0 -76 -50 -76 -61 0 -6 6 -7 13 -3 7 4 9 3 4 -2 -5 -5 -14 -9 -20 -9 -7 0 -13
-9 -15 -20 -2 -13 0 -16 5 -8 5 7 9 -4 9 -29 1 -26 -2 -35 -7 -27 -5 8 -9 9
-9 3 0 -5 7 -19 16 -30 8 -10 13 -13 9 -6 -9 18 -1 15 20 -8 18 -19 17 -20
-30 -41 -29 -13 -94 -27 -164 -35 -141 -17 -170 -16 -76 2 l70 13 -72 -5 c-66
-5 -73 -3 -73 13 0 15 2 16 10 3 11 -17 13 -1 4 25 -5 11 -9 13 -14 6 -3 -7
-11 4 -17 24 -12 39 -7 48 7 13 7 -18 9 -19 9 -5 1 9 -8 25 -19 34 -11 10 -20
22 -20 28 0 5 5 3 10 -5 9 -13 10 -13 10 0 0 8 -5 22 -10 30 -9 13 -10 13 -10
0 -1 -8 -10 7 -21 34 -11 27 -18 51 -15 53 2 2 9 -12 16 -32 7 -20 14 -34 18
-31 8 8 -29 86 -38 81 -5 -3 -11 2 -14 11 -3 8 -2 12 4 9 15 -9 12 1 -15 56
-14 27 -30 47 -35 44 -5 -3 -12 0 -16 6 -5 8 -3 9 6 4 8 -5 11 -3 8 6 -3 8
-10 14 -16 14 -5 0 -14 4 -19 9 -5 5 -2 6 6 1 9 -5 12 -3 9 6 -3 8 -10 14 -16
14 -5 0 -14 4 -19 9 -5 5 -2 6 6 1 9 -5 12 -3 9 6 -3 8 -10 14 -16 14 -5 0
-14 4 -19 9 -5 5 -2 6 6 1 9 -5 12 -3 9 6 -3 8 -10 14 -15 14 -6 0 -15 4 -20
9 -5 5 -2 6 6 1 9 -5 12 -3 9 6 -3 8 -10 14 -15 14 -6 0 -15 4 -20 9 -5 5 -3
6 5 2 15 -9 16 -10 -8 49 -10 28 -19 41 -20 30 -2 -42 -38 93 -43 160 -6 78
-1 70 12 -20 l10 -60 -2 75 c-2 65 -5 76 -22 82 -21 8 -7 6 120 -14z m843
-1150 c126 -25 169 -38 190 -56 l27 -24 -32 21 c-17 12 -39 21 -50 21 -11 -1
-7 -6 14 -15 18 -7 57 -32 88 -55 31 -23 59 -40 61 -37 2 2 -14 16 -36 31 -22
14 -40 29 -40 32 0 3 24 -12 54 -32 l54 -38 -63 -16 c-34 -9 -82 -28 -105 -44
-23 -15 -39 -23 -35 -17 3 6 30 25 58 41 29 16 48 30 42 30 -14 0 -75 -38
-102 -63 -24 -21 -32 -44 -11 -31 6 4 8 3 4 -4 -4 -7 -71 -11 -188 -12 -100 0
-184 -3 -187 -5 -2 -3 79 -6 180 -7 l184 -1 -200 -7 -200 -7 -50 50 c-27 28
-42 45 -32 38 21 -16 23 1 2 19 -8 7 -15 9 -15 4 0 -4 -4 -4 -9 1 -5 6 -5 30
0 55 l8 45 -3 -47 c-2 -26 0 -45 5 -42 15 9 10 79 -7 100 -8 10 -12 12 -8 4 7
-13 5 -13 -9 -1 -18 15 -23 26 -7 16 6 -3 10 -1 10 6 0 6 -8 9 -20 6 -11 -3
-20 -1 -20 4 0 5 7 9 15 9 8 0 35 7 61 16 52 18 158 42 189 43 11 1 93 -13
183 -31z m-3774 -78 c16 0 35 -8 43 -17 8 -10 11 -12 7 -4 -4 9 -3 12 4 7 6
-4 9 -12 6 -19 -2 -7 3 -21 12 -32 8 -11 12 -13 8 -5 -7 13 -5 13 9 1 18 -15
23 -26 7 -16 -5 3 -10 2 -10 -4 0 -12 89 -91 103 -91 5 0 -1 9 -14 20 -14 12
-2 8 31 -11 30 -17 66 -41 78 -53 l24 -23 -154 -5 c-152 -5 -173 -2 -161 28 2
6 -1 15 -8 20 -8 5 -10 3 -4 -7 8 -12 6 -12 -8 0 -18 15 -23 26 -7 16 6 -3 10
-3 10 2 -1 10 -68 83 -77 83 -4 0 8 -16 27 -35 19 -19 32 -35 29 -35 -3 0 -23
19 -44 41 -22 23 -34 39 -27 35 24 -14 12 11 -20 40 -18 16 -24 19 -14 7 27
-32 15 -29 -15 4 -13 14 -18 23 -10 18 9 -5 12 -3 9 6 -3 8 -10 13 -15 12 -6
-1 -25 13 -42 31 l-33 34 114 -24 c62 -13 126 -23 142 -24z"/>
<path d="M6057 6732 c-10 -10 -17 -25 -17 -33 0 -8 6 -3 13 11 11 21 20 25 60
24 26 0 53 -6 59 -12 10 -10 6 -10 -19 -2 -42 15 -87 9 -91 -11 -2 -11 8 -19
30 -25 18 -5 33 -15 33 -21 0 -6 3 -15 8 -19 4 -4 7 -12 7 -18 0 -6 -5 -4 -11
4 -8 12 -10 11 -7 -5 2 -11 8 -20 15 -20 6 0 15 -4 20 -9 5 -5 3 -6 -4 -2 -16
9 -16 1 -2 -27 15 -29 50 -67 62 -67 5 0 1 8 -10 18 -10 9 -14 14 -9 10 15
-12 29 -9 23 5 -2 6 -7 23 -11 37 -6 20 -5 22 4 10 8 -12 9 -8 4 15 -8 37 -14
44 -15 19 -2 -31 -17 25 -17 61 l0 30 8 -30 8 -30 1 32 c2 61 -101 101 -142
55z"/>
<path d="M2764 4548 l-19 -23 22 19 c24 20 54 17 88 -8 17 -13 14 -13 -22 0
-39 15 -43 15 -67 -2 -19 -14 -26 -29 -27 -59 l-2 -40 -7 45 -7 45 -1 -41 c-3
-58 31 -106 82 -116 22 -5 41 -6 43 -4 3 2 -14 8 -37 13 -29 6 -47 16 -58 33
l-14 25 18 -23 c26 -31 117 -37 122 -8 3 13 0 16 -10 10 -11 -6 -11 -5 1 9 7
9 11 26 8 38 -5 17 -3 18 9 8 13 -11 14 -8 8 17 -9 37 -20 52 -55 70 -38 19
-53 18 -75 -8z"/>
<path d="M2970 4240 l35 -30 -40 25 c-32 21 -47 25 -75 20 -19 -4 -38 -9 -42
-11 -11 -7 -10 -39 3 -68 16 -35 100 -47 132 -20 l22 19 -20 -24 c-17 -20 -26
-22 -65 -18 -30 4 -38 3 -25 -3 37 -16 69 -10 97 17 15 15 28 32 28 40 0 16
-59 83 -73 83 -6 0 4 -14 23 -30z"/>
<path d="M3792 4217 c-18 -18 -32 -36 -32 -40 0 -4 14 8 31 28 17 19 35 35 39
35 4 0 -7 -15 -26 -34 -29 -29 -34 -42 -36 -82 l-1 -49 -7 45 -7 45 -1 -46
c-2 -39 2 -49 31 -77 24 -23 36 -29 47 -22 8 5 22 10 30 10 11 0 11 -3 2 -12
-7 -7 -13 -23 -13 -38 -1 -24 -2 -23 -9 5 l-8 30 -1 -27 c-1 -16 8 -37 22 -50
12 -13 16 -16 9 -7 -13 16 -11 16 21 1 19 -10 28 -18 21 -20 -19 -5 -17 -27 3
-43 11 -10 14 -10 9 -1 -11 18 -1 15 15 -5 12 -14 12 -16 0 -9 -9 6 -12 5 -9
-4 8 -24 59 -23 92 1 l31 22 -19 -21 c-11 -12 -33 -26 -50 -31 -24 -7 -26 -9
-9 -10 12 -1 37 12 56 28 35 31 52 30 58 -4 3 -15 11 -19 34 -18 66 5 115 16
115 25 0 5 -5 6 -12 2 -7 -4 -8 -3 -4 5 4 6 12 9 17 6 5 -4 12 2 15 12 4 10
19 47 35 81 30 67 29 84 -8 113 -16 13 -17 12 -4 -3 10 -13 1 -11 -33 8 -57
32 -60 37 -37 58 12 11 17 26 14 39 -4 18 -3 19 6 7 6 -8 11 -10 11 -5 -1 13
-25 45 -34 45 -4 0 -4 -5 -1 -11 4 -6 -2 -5 -14 2 -15 10 -17 16 -8 22 9 6 8
7 -3 4 -8 -2 -15 -10 -15 -18 0 -8 -6 -14 -14 -14 -8 0 -16 -6 -19 -14 -3 -8
0 -11 7 -7 7 4 10 2 9 -5 -2 -7 2 -14 7 -14 6 -1 18 -5 27 -9 9 -4 23 -4 30 0
11 6 11 4 0 -7 -10 -11 -17 -11 -31 -2 -25 15 -36 4 -13 -13 14 -11 12 -11
-17 -1 -19 7 -26 13 -18 15 14 3 14 5 0 22 -9 10 -20 17 -24 15 -4 -3 -13 3
-20 13 -13 16 -13 16 6 2 19 -14 19 -14 6 2 -7 10 -17 15 -22 12 -5 -3 -17 0
-26 6 -16 10 -16 11 2 5 16 -5 18 -4 8 6 -10 10 -16 10 -25 1 -7 -7 -20 -12
-29 -12 -9 0 -19 -10 -22 -22 -6 -22 -6 -22 8 -4 8 11 15 15 15 9 0 -5 -9 -18
-21 -29 -11 -10 -19 -14 -17 -8 5 18 -47 71 -78 78 -16 4 -36 9 -45 12 -8 2
-29 -10 -47 -29z"/>
<path d="M3266 4121 c-4 -5 2 -7 13 -4 11 3 30 -6 47 -22 l29 -26 -30 20 c-35
24 -76 22 -105 -4 -21 -19 -28 -41 -8 -29 7 4 8 3 4 -5 -4 -6 -12 -9 -17 -6
-11 7 -29 -36 -29 -70 0 -32 46 -68 70 -55 10 6 29 10 42 9 23 -1 23 -1 -2
-10 l-25 -8 25 2 c14 1 25 8 25 14 0 7 11 20 25 30 l25 17 -20 -25 c-15 -18
-12 -17 13 5 47 43 45 86 -7 137 -38 38 -64 48 -75 30z"/>
<path d="M3314 3756 c-46 -25 -53 -36 -43 -62 12 -32 11 -56 -2 -29 -8 18 -8
17 -6 -5 1 -14 7 -24 13 -23 6 1 22 -9 34 -22 29 -30 39 -31 91 -4 38 19 41
23 35 52 -3 17 -14 40 -23 51 l-17 21 22 -20 c12 -11 24 -34 28 -52 6 -28 3
-34 -27 -53 -51 -31 -77 -35 -99 -15 -11 10 -20 14 -20 8 0 -5 11 -16 25 -23
21 -11 30 -11 65 5 21 10 47 26 56 36 22 25 11 69 -28 105 -17 16 -28 23 -24
17 9 -16 4 -16 -27 -2 -19 9 -31 7 -61 -10 -21 -12 -35 -17 -32 -12 12 18 70
41 90 35 17 -4 18 -3 6 5 -18 13 -29 12 -56 -3z"/>
<path d="M3191 3349 c-40 -48 -49 -64 -40 -75 6 -8 15 -12 19 -9 4 3 14 -3 21
-12 12 -14 12 -16 0 -9 -9 6 -12 5 -10 -3 3 -7 9 -12 14 -12 6 0 17 -7 26 -14
8 -8 32 -14 52 -13 20 1 40 -2 44 -5 3 -4 -1 -7 -11 -7 -31 0 7 -28 56 -41 37
-10 53 -9 102 6 64 20 62 18 70 95 3 36 2 48 -4 35 -7 -18 -9 -18 -11 -2 -1 9
-2 22 -3 27 -2 17 -29 30 -61 29 -28 -1 -27 -2 8 -9 55 -10 52 -15 -11 -15
-32 -1 -49 1 -40 3 21 4 12 32 -11 32 -9 0 -31 9 -50 21 -24 15 -47 20 -77 17
-23 -1 -40 0 -37 5 9 15 83 6 115 -13 18 -11 38 -20 43 -20 6 0 -10 11 -34 25
-25 14 -59 25 -80 25 -34 0 -43 -6 -90 -61z"/>
<path d="M2862 3100 l-32 -30 -153 -1 c-83 -1 -402 -5 -707 -9 l-555 -6 500 0
c275 0 595 3 712 6 l212 5 30 29 c29 28 31 28 56 12 14 -10 34 -15 43 -13 14
4 13 5 -3 6 -11 1 -29 8 -39 16 -26 19 -25 19 -64 -15z"/>
<path d="M12730 2788 c-15 -18 -41 -19 -845 -28 l-830 -8 829 3 c819 4 829 4
849 24 12 11 19 22 16 25 -2 2 -11 -5 -19 -16z"/>
<path d="M12540 2738 c-33 -7 -360 -12 -2610 -38 -2576 -30 -2492 -30 -2566
-15 -38 8 -80 14 -94 14 l-25 -2 25 -4 c14 -2 57 -11 96 -18 75 -15 -56 -16
2594 15 476 6 1242 15 1702 20 460 5 856 14 880 18 49 10 154 9 165 -1 3 -4
11 -7 17 -7 6 0 2 6 -8 12 -23 13 -128 17 -176 6z"/>
<path d="M7725 2720 c-324 -3 -574 -7 -555 -8 57 -5 1021 0 1475 8 l420 6
-375 0 c-206 -1 -640 -3 -965 -6z"/>
<path d="M12545 2718 c-28 -7 -347 -12 -2565 -38 -476 -6 -1242 -15 -1703 -20
-712 -9 -848 -8 -910 4 -158 31 -208 38 -224 31 -10 -4 -49 -9 -86 -10 -37 -2
-73 -8 -80 -13 -7 -5 -287 -12 -687 -16 -371 -3 -1044 -10 -1495 -16 -2046
-24 -2559 -30 -3430 -40 -985 -10 -1305 -17 -1314 -26 -3 -3 86 -3 199 0 113
4 624 11 1135 16 512 6 1304 15 1760 20 457 6 1204 15 1660 20 457 6 1129 13
1495 16 592 6 667 8 685 23 20 16 20 16 1 -6 -19 -23 -20 -23 -335 -23 -174 0
-631 -4 -1016 -10 -385 -5 -1103 -14 -1595 -20 -2804 -32 -3962 -47 -3995 -53
-11 -2 -21 -12 -23 -23 -3 -16 -1 -17 7 -4 9 13 11 12 11 -4 0 -15 5 -17 22
-11 13 4 34 8 48 9 14 1 31 5 39 10 9 6 12 5 8 -1 -9 -14 28 -23 67 -17 30 4
30 4 6 -6 -13 -6 -36 -9 -50 -6 l-25 5 25 -12 c14 -7 25 -18 26 -24 3 -36 4
-38 13 -25 6 10 10 9 14 -7 3 -12 1 -19 -4 -15 -16 10 -9 -13 8 -27 13 -11 15
-11 9 -1 -6 10 0 9 23 -2 17 -9 31 -19 31 -22 0 -2 -10 1 -22 7 -19 9 -21 9
-10 -2 6 -7 12 -22 12 -34 0 -11 5 -27 11 -35 8 -11 9 -6 5 20 -6 34 -5 34 5
7 20 -50 14 -52 -152 -51 -85 0 -141 -2 -124 -6 17 -3 90 -5 164 -4 73 1 129
-1 123 -5 -5 -3 -78 -5 -161 -5 -83 1 -151 -2 -151 -7 0 -4 17 -13 37 -20 28
-9 135 -10 443 -5 223 3 711 8 1085 11 374 3 847 7 1050 10 204 3 690 6 1080
8 444 3 560 2 310 -2 l-400 -6 390 -3 390 -2 20 -30 c11 -16 24 -30 29 -30 5
0 -1 11 -14 25 -13 14 -22 26 -19 28 2 2 27 -22 54 -52 28 -30 45 -51 38 -48
-6 4 -13 3 -15 -2 -2 -6 -271 -12 -708 -16 -388 -3 -1229 -10 -1870 -16 -1149
-11 -1386 -7 -1413 20 -12 12 -86 13 -132 1 -18 -5 -4 -6 37 -3 49 4 76 1 100
-10 57 -27 292 -30 1443 -18 611 6 1439 12 1840 14 707 4 714 4 210 -4 -932
-14 -3217 -30 -3340 -23 -72 4 -133 12 -153 22 -26 11 -48 13 -100 6 -37 -4
-90 -8 -118 -9 -29 0 -58 -6 -67 -13 -8 -7 -52 -13 -108 -15 -79 -2 -94 -5
-97 -20 -3 -15 9 -17 129 -17 73 0 130 -3 126 -6 -3 -3 -61 -7 -129 -7 l-123
-1 106 -3 c103 -4 107 -4 111 -27 5 -23 2 -25 -66 -32 -39 -4 -64 -9 -56 -11
8 -2 51 1 95 5 44 5 86 6 93 2 17 -8 -182 -22 -203 -14 -8 4 -12 11 -8 18 3 6
2 7 -2 3 -5 -4 -11 -19 -12 -33 l-4 -24 833 4 c458 3 1159 5 1558 5 873 0 947
0 985 3 17 1 57 1 90 1 33 -1 300 1 592 4 511 4 535 4 590 -15 32 -11 74 -20
93 -20 19 0 103 -6 187 -13 135 -10 154 -14 170 -33 10 -11 12 -16 5 -10 -8 7
-32 8 -65 4 -43 -6 -1269 -12 -4620 -23 -258 -1 -470 -4 -472 -7 -2 -3 0 -12
5 -20 6 -10 40 -13 152 -11 78 1 157 4 173 7 19 3 37 -1 50 -11 19 -16 19 -16
-3 -5 -13 6 -37 8 -54 5 -17 -4 -96 -7 -175 -7 -79 0 -142 -2 -139 -5 8 -8
278 -6 314 2 17 3 40 2 51 -4 11 -6 22 -7 25 -2 9 14 2290 15 2316 1 11 -6 74
-12 138 -14 65 -1 124 -6 131 -10 6 -4 18 -2 26 4 8 6 19 9 25 5 6 -4 52 -7
103 -7 61 0 105 -5 130 -15 32 -14 41 -14 62 -3 14 7 23 15 21 17 -2 3 -13 -1
-24 -8 -17 -11 -27 -10 -59 3 -25 11 -68 16 -130 16 -51 0 -97 3 -103 7 -6 4
-17 1 -25 -5 -8 -6 -20 -8 -26 -4 -7 4 -64 9 -127 10 -63 1 -127 8 -142 14
-19 8 -340 10 -1172 8 -631 -2 -1144 0 -1142 3 7 12 2292 11 2314 -1 11 -6 74
-12 138 -14 65 -1 124 -6 131 -10 6 -4 18 -2 26 4 8 6 18 9 23 6 5 -3 54 -6
108 -7 56 -1 113 -8 131 -15 25 -11 38 -11 58 -2 19 8 31 8 50 0 14 -7 39 -12
55 -12 16 0 41 -5 55 -12 20 -9 34 -9 60 1 29 10 39 9 62 -4 15 -9 19 -13 8
-9 -26 9 -51 8 -95 -4 -27 -8 -29 -10 -12 -11 13 -1 32 4 43 9 14 8 31 7 64
-4 24 -9 52 -13 62 -10 15 5 16 4 3 -5 -8 -6 -24 -8 -34 -5 -15 5 -18 3 -13
-11 4 -9 7 -21 7 -26 0 -40 187 -46 245 -7 l30 19 -28 -25 c-29 -26 -69 -33
-182 -29 -31 1 -35 0 -19 -7 12 -5 57 -6 100 -3 l79 6 52 53 c29 30 48 54 43
54 -5 0 -12 -5 -15 -10 -3 -6 -11 -10 -18 -10 -23 0 29 27 73 38 90 23 150 25
169 8 14 -13 23 -14 42 -6 22 9 22 10 2 6 -12 -2 -31 3 -43 11 -22 15 -106 11
-173 -8 -20 -5 -27 -5 -21 1 17 17 165 34 185 21 10 -6 29 -11 43 -11 13 0 30
-8 37 -17 10 -11 10 -14 1 -9 -26 15 -10 -13 23 -43 35 -30 50 -36 175 -65
151 -35 152 -34 240 50 64 61 152 101 171 78 6 -8 16 -11 23 -7 6 3 6 0 -2 -8
-6 -7 -12 -22 -13 -34 -1 -17 -2 -16 -9 5 -7 23 -8 23 -9 3 -1 -26 8 -33 49
-38 17 -2 45 -7 61 -10 33 -8 69 16 69 44 0 14 -2 14 -10 1 -7 -11 -10 -11
-10 -2 0 9 -13 12 -40 10 -34 -2 -39 -5 -34 -20 3 -10 1 -18 -5 -18 -6 0 -11
9 -11 19 0 11 -5 23 -10 26 -6 4 -1 14 12 25 17 14 26 15 40 6 14 -8 27 -6 60
11 60 30 196 38 303 18 44 -9 84 -21 90 -27 7 -8 6 -9 -2 -4 -6 3 -46 13 -90
21 -105 20 -256 12 -296 -17 -17 -12 -39 -18 -53 -15 -13 2 -24 0 -24 -4 0
-16 50 -9 78 10 59 42 350 30 377 -15 20 -33 57 -74 67 -74 6 0 0 9 -13 21
-23 20 -23 20 9 -1 17 -12 32 -24 32 -26 0 -3 -4 -2 -10 1 -5 3 -10 -1 -10
-10 0 -9 3 -14 8 -12 4 3 8 -15 8 -40 1 -24 6 -49 12 -55 16 -16 69 1 86 28
15 21 24 24 78 24 50 0 66 -4 86 -22 14 -13 22 -17 17 -9 -5 10 -4 12 4 7 6
-4 9 -12 5 -17 -8 -14 25 -49 45 -48 11 0 9 3 -5 9 -12 5 -25 14 -29 20 -5 7
0 7 13 -1 29 -18 36 -7 44 64 l6 62 -2 -67 c-3 -109 12 -55 19 69 6 97 10 114
24 112 9 -1 27 3 41 9 31 13 8 15 -44 3 -24 -6 -35 -6 -29 0 5 5 31 11 57 13
26 2 55 11 65 20 15 14 54 16 300 16 258 0 285 -2 319 -19 74 -38 241 -53 309
-29 29 11 35 10 56 -10 14 -14 45 -26 78 -31 39 -7 75 -23 129 -60 77 -52 109
-61 129 -37 7 9 26 12 59 8 39 -3 50 0 66 17 12 13 31 21 51 21 17 0 37 6 44
13 10 8 12 8 7 0 -4 -7 5 -6 24 3 37 19 38 22 3 18 -22 -3 -19 -1 9 9 20 6 47
22 60 35 14 12 37 23 54 23 25 2 24 3 -11 9 l-40 8 40 -2 c32 -1 39 -4 37 -18
-2 -16 6 -18 62 -18 l64 0 19 -37 c18 -38 24 -40 78 -29 22 5 19 2 -10 -9 -39
-16 -40 -15 -62 10 -13 14 -23 22 -23 17 0 -5 11 -18 23 -31 19 -17 29 -20 48
-13 33 11 54 9 54 -5 0 -23 15 -25 41 -4 28 22 74 29 74 11 0 -17 43 -11 75
10 17 11 41 19 55 19 21 -1 20 -2 -7 -9 -18 -4 -40 -13 -48 -20 -8 -7 -30 -16
-48 -20 -27 -7 -28 -8 -7 -9 14 0 39 8 55 19 42 28 73 26 85 -6 6 -14 14 -23
19 -20 11 7 21 -18 20 -47 -1 -17 -3 -15 -9 8 l-8 30 1 -35 c2 -35 3 -35 47
-35 44 0 45 1 47 35 0 19 1 43 2 53 1 12 9 17 29 17 51 -1 66 -23 79 -118 l11
-87 -3 90 c-3 76 -2 81 4 35 15 -98 20 -166 11 -145 l-9 20 0 -20 c-1 -25 18
-59 20 -35 0 10 3 8 9 -5 12 -28 12 -43 -1 -25 -9 12 -10 12 -5 -3 3 -10 6
-21 6 -23 0 -3 4 -3 9 0 5 3 12 -1 15 -10 4 -9 2 -13 -5 -8 -7 4 -10 1 -7 -7
3 -8 10 -13 15 -12 5 1 9 -8 9 -20 -1 -12 4 -22 11 -22 6 0 15 -4 20 -9 5 -5
3 -6 -4 -2 -7 4 -13 3 -13 -2 0 -10 68 -102 76 -102 3 0 2 5 -1 10 -3 6 -1 10
5 10 7 0 9 7 6 16 -3 8 -2 12 4 9 6 -3 10 -4 10 -2 0 11 -57 106 -62 102 -2
-3 -10 7 -17 22 -10 26 -10 27 4 9 8 -11 15 -14 15 -8 0 7 -9 20 -20 29 -11
10 -20 24 -19 33 0 11 3 9 10 -5 8 -17 9 -17 4 5 -2 14 -5 32 -6 40 0 10 -3 8
-8 -5 -11 -28 -31 65 -35 165 -3 57 -2 63 3 25 l7 -50 4 53 c4 41 1 56 -10 63
-8 4 -12 9 -7 9 4 0 16 -5 26 -12 15 -9 25 -9 46 0 44 20 77 14 145 -28 36
-22 74 -40 85 -39 15 1 14 3 -7 9 -15 4 -54 25 -87 45 -61 38 -89 42 -146 21
-13 -5 -11 -2 5 8 41 25 80 19 150 -24 66 -41 106 -50 128 -28 16 16 15 31 0
22 -8 -4 -10 -3 -5 2 5 5 14 9 20 9 5 0 12 6 15 14 3 9 0 11 -9 6 -10 -5 -9
-3 2 9 10 11 37 18 85 21 l69 4 -64 -9 c-86 -12 -101 -21 -23 -13 l62 6 1 -29
c0 -16 4 -38 9 -49 6 -14 7 -4 5 30 -4 42 -3 44 4 15 4 -19 11 -46 15 -59 6
-17 5 -22 -4 -16 -8 5 -11 3 -8 -6 3 -8 10 -14 15 -14 6 0 15 -4 20 -9 5 -5 3
-6 -4 -2 -29 16 -10 -15 29 -48 47 -41 132 -76 183 -76 27 0 35 -4 35 -17 0
-16 -2 -16 -11 -3 -8 12 -9 11 -6 -5 2 -11 8 -19 13 -18 6 1 10 -8 10 -20 -1
-12 4 -22 11 -22 6 0 15 -4 20 -9 5 -5 3 -6 -4 -2 -27 15 -11 -13 24 -44 51
-45 98 -63 165 -63 46 0 66 5 104 29 26 16 49 36 52 44 3 9 -8 4 -24 -11 -45
-41 -74 -52 -136 -52 -62 1 -132 28 -164 65 -13 14 -4 10 26 -11 91 -63 213
-59 274 8 10 11 22 18 27 15 10 -6 43 55 35 64 -3 3 -6 1 -6 -4 0 -6 -7 -19
-15 -30 -11 -14 -10 -9 3 23 9 23 20 37 23 31 8 -12 19 17 18 45 -1 20 -2 20
-10 -3 -7 -20 -8 -17 -4 15 3 22 6 60 7 85 l1 45 7 -55 7 -55 1 59 2 58 48 -7
c65 -10 111 -30 150 -68 18 -18 36 -30 39 -27 3 3 12 -6 21 -20 l14 -25 -21
25 c-24 30 -28 20 -5 -15 9 -14 20 -23 24 -20 5 3 12 0 16 -6 4 -8 3 -9 -4 -5
-7 4 -12 4 -12 1 0 -14 34 -71 46 -78 8 -4 14 -13 14 -20 0 -7 -4 -6 -10 3
-11 17 -13 1 -4 -25 5 -13 9 -14 15 -4 8 13 24 -35 34 -102 4 -28 3 -30 -5
-14 -9 16 -9 14 -5 -14 3 -18 6 -41 6 -50 1 -9 4 -2 8 14 5 24 9 11 19 -60 25
-178 31 -294 32 -540 0 -226 8 -347 26 -401 5 -16 4 -16 -5 -4 -8 11 -11 12
-11 2 0 -21 20 -53 30 -47 5 3 12 0 16 -6 4 -8 3 -9 -4 -5 -24 15 -11 -11 21
-41 31 -31 34 -31 125 -30 91 2 93 2 128 37 41 39 68 86 60 103 -2 7 -5 4 -5
-5 -1 -9 -5 -19 -10 -23 -5 -3 -5 11 1 32 11 37 8 349 -9 971 l-6 252 21 0
c20 0 22 -6 24 -52 l1 -53 6 55 c5 46 7 33 13 -75 5 -71 7 -173 6 -225 l-2
-95 -6 120 -6 120 -2 -106 c-2 -113 6 -187 18 -155 5 14 9 9 18 -20 10 -35 10
-37 -3 -20 -8 11 -15 14 -15 7 0 -7 20 -33 44 -59 42 -44 48 -47 94 -47 40 0
59 6 93 30 23 17 45 37 47 45 5 13 3 13 -14 0 -17 -12 -17 -12 -6 0 7 8 18 15
24 15 6 0 13 6 16 14 3 8 0 11 -6 7 -6 -4 -8 2 -5 15 4 13 8 17 13 9 5 -8 9
-7 14 5 8 22 6 272 -4 400 -5 71 -7 31 -5 -140 1 -132 1 -202 -1 -155 -2 47
-8 175 -13 285 -5 110 -6 241 -2 290 l6 90 6 -65 6 -65 1 61 c2 59 3 62 35 75
53 21 129 73 172 117 l39 41 736 3 c590 2 739 6 755 16 l20 14 -20 -9 c-22 -9
-1512 -17 -1503 -8 3 3 317 6 699 5 605 0 738 4 821 22 47 11 16 16 -119 23
-214 10 -304 23 -138 20 122 -3 124 -2 45 5 -47 5 -186 12 -310 16 -218 6
-226 6 -263 -15 -29 -16 -52 -21 -105 -19 l-67 2 65 3 c39 2 81 11 105 23 35
17 64 20 225 23 l185 2 -187 3 c-171 2 -190 0 -223 -18 -47 -27 -135 -28 -136
-2 0 14 -2 14 -9 -3 -6 -13 -9 -15 -9 -5 -1 21 -31 37 -84 45 -44 7 -49 5 -82
-28 -31 -31 -48 -38 -27 -11 4 5 -1 0 -12 -11 -18 -19 -18 -20 5 -26 16 -5 18
-7 7 -8 -10 -1 -35 5 -55 13 -52 19 -215 40 -253 32 -21 -4 -30 -2 -28 5 3 8
62 13 183 16 103 2 184 8 190 14 6 6 -48 8 -170 5 -117 -3 -159 -2 -120 4 33
4 365 8 737 9 439 1 679 5 683 11 3 6 15 10 26 10 39 0 18 19 -28 25 -27 3
-59 9 -73 12 l-25 5 25 11 c14 5 29 11 33 11 11 1 27 28 26 46 0 8 -4 5 -9 -7
-11 -28 -20 -30 -13 -4 3 10 0 22 -6 25 -18 12 -12 26 12 27 12 0 31 4 42 8
56 22 -144 59 -220 41 -22 -6 -128 -13 -235 -16 -223 -8 -207 -8 -280 7 -30 6
-77 12 -105 13 -27 1 -55 5 -62 9 -12 8 -72 14 -240 24 -67 4 -97 2 -108 -7
-12 -10 -18 -10 -30 0 -12 10 -18 10 -30 0 -9 -8 -33 -10 -67 -7 -52 5 -72 9
-216 41 -108 24 -190 20 -419 -19 -192 -33 -218 -35 -366 -31 -132 4 -162 7
-178 22 -15 13 -30 16 -74 11 -38 -4 -67 -1 -91 9 -37 15 -82 10 -259 -28 -82
-18 -363 -34 -443 -26 -51 6 -80 4 -95 -4 -36 -20 -271 -29 -325 -13 -31 10
-50 11 -58 4 -8 -7 -14 -7 -19 1 -4 6 -3 10 2 9 4 -1 15 1 23 4 8 3 24 7 35 9
12 2 20 11 20 23 0 15 -6 20 -25 18 -40 -2 -91 -13 -144 -30 -37 -12 -54 -13
-72 -4 -14 6 -55 11 -92 11 -39 1 -77 7 -92 15 -14 8 -34 14 -45 14 -49 0 68
-32 140 -39 44 -3 88 -10 97 -14 10 -5 39 -1 68 9 28 9 57 14 65 11 7 -2 15 0
18 7 2 6 6 4 9 -5 5 -13 1 -15 -20 -13 -15 2 -49 -3 -75 -12 -27 -8 -55 -12
-65 -7 -9 4 -53 11 -97 15 -44 3 -102 15 -129 25 -45 16 -59 16 -150 5 -193
-25 -215 -25 -248 -1 -28 21 -31 21 -70 6 -45 -19 -91 -14 -127 13 -23 18 -22
18 64 25 48 3 338 7 644 7 306 1 612 2 681 2 96 1 144 -4 209 -20 90 -23 128
-21 250 14 46 13 173 17 800 23 410 4 1046 6 1413 5 405 -2 670 0 673 6 4 5
34 10 68 11 l62 2 -55 3 c-30 3 -63 -1 -75 -7 -13 -7 -88 -10 -215 -8 l-195 3
202 3 c135 1 204 6 209 13 4 7 41 10 107 8 74 -3 101 -1 104 9 4 9 -18 12 -84
13 -53 0 -80 3 -68 8 11 4 49 7 85 6 36 -1 48 0 28 2 -21 2 -38 10 -38 16 0 7
-4 6 -10 -3 -7 -11 -8 -5 -4 20 10 53 10 54 -3 55 -7 0 -17 5 -24 12 -8 8 -6
14 10 22 12 7 21 8 21 4 0 -4 5 -2 11 4 16 16 1 106 -18 99 -8 -3 -11 -1 -8 4
3 6 -4 11 -17 11 -16 1 -18 3 -6 6 9 2 26 -1 37 -6 16 -9 24 -7 41 11 11 12
20 26 20 30 0 25 -143 44 -205 26z m-5855 -438 c0 -19 -97 -58 -205 -80 -72
-15 -123 -31 -149 -49 l-40 -26 -344 -3 c-283 -2 -354 0 -404 13 -33 8 -74 15
-91 15 -18 0 -50 9 -72 20 -22 11 -31 18 -21 15 11 -3 22 -1 25 4 4 6 25 5 56
-2 47 -10 107 -12 230 -8 28 2 86 -1 131 -4 72 -6 86 -5 125 16 50 26 150 32
171 11 6 -6 19 -12 28 -12 25 0 -40 30 -79 36 -20 3 -57 -1 -83 -9 -27 -8 -46
-11 -43 -7 9 14 103 32 135 25 17 -4 43 -13 58 -21 35 -19 132 -9 186 18 21
11 36 15 33 10 -9 -14 -78 -40 -137 -51 l-55 -10 55 5 c30 3 84 18 120 34 74
32 211 55 288 48 28 -3 57 -1 64 3 18 12 -139 11 -199 0 -77 -15 -131 -21
-108 -11 58 24 325 41 325 20z"/>
<path d="M3790 2680 l-595 -5 565 -1 c311 -1 747 2 970 5 l405 7 -375 0 c-206
-1 -643 -3 -970 -6z"/>
<path d="M10660 2320 c-594 -5 -598 -5 -215 -9 215 -2 372 -7 350 -11 -237
-43 -294 -49 -448 -45 -130 3 -162 6 -177 20 -13 11 -31 15 -61 12 l-44 -4 44
-1 c25 -1 52 -9 62 -18 29 -26 310 -28 458 -3 64 11 154 26 201 34 149 25 293
14 456 -36 42 -13 118 -11 132 3 8 8 15 8 27 -2 12 -10 18 -10 30 0 11 9 42
11 107 7 153 -8 228 -16 241 -24 7 -4 35 -8 62 -9 28 0 77 -6 110 -13 33 -7
74 -12 90 -12 54 3 279 9 323 10 24 0 67 5 95 11 50 10 154 3 202 -14 11 -4 8
0 -6 8 -31 18 -138 23 -259 11 -142 -14 -379 -16 -444 -3 -34 6 -83 12 -111
12 -27 1 -55 5 -62 9 -13 8 -88 16 -241 24 -65 4 -96 2 -107 -7 -12 -10 -18
-10 -30 0 -12 10 -19 10 -27 2 -14 -14 -90 -16 -132 -2 -17 5 -59 15 -93 22
-34 6 -60 14 -57 17 2 3 224 8 492 11 l487 6 -425 0 c-234 0 -697 -3 -1030 -6z"/>
<path d="M9115 2300 c-27 -4 -44 -8 -36 -8 8 -1 11 -5 8 -8 -4 -4 -12 -2 -20
4 -9 7 -187 11 -577 11 -311 0 -556 -4 -545 -8 17 -7 17 -8 -8 -15 -15 -3 -36
-2 -47 4 -23 12 -53 13 -46 1 12 -19 74 -22 114 -5 39 15 42 15 71 -7 26 -19
37 -21 98 -15 37 3 93 11 123 17 75 14 721 22 698 8 -24 -14 -22 -35 5 -54
l22 -16 -25 5 c-14 2 -34 5 -44 5 -18 1 -18 2 -3 19 18 20 22 32 10 32 -11 0
-34 -52 -27 -59 11 -11 163 -2 186 10 13 8 28 13 33 14 6 0 10 7 10 15 0 8 -5
14 -12 13 -7 -2 -10 3 -7 11 7 18 221 33 250 18 10 -5 57 -18 104 -28 l85 -19
-80 -5 c-44 -3 -111 -2 -150 2 -54 6 -80 4 -112 -8 -23 -9 -56 -14 -73 -12
-17 3 -33 1 -36 -4 -9 -14 73 -9 113 7 29 11 55 13 108 7 77 -8 359 8 440 26
184 40 221 43 264 26 23 -9 44 -14 47 -11 3 2 -7 7 -21 11 -14 4 -25 11 -25
16 0 16 -278 12 -336 -4 -121 -35 -154 -37 -244 -15 -90 23 -232 31 -315 19z"/>
<path d="M2095 2240 l-620 -5 590 -1 c325 -1 795 2 1045 5 l455 7 -425 0
c-234 -1 -704 -3 -1045 -6z"/>
<path d="M1970 1908 c-652 -3 -1276 -6 -1387 -5 -111 1 -199 -2 -196 -7 3 -5
368 -6 832 -2 814 6 1841 7 2056 2 75 -2 121 1 145 11 30 11 31 12 5 6 -36 -8
-222 -11 -250 -3 -11 3 -553 2 -1205 -2z"/>
<path d="M3668 1914 c-3 -3 -52 -6 -109 -6 -86 -1 -93 -3 -44 -7 33 -3 85 -3
115 1 83 10 1028 9 1048 -1 42 -21 94 -31 167 -31 43 0 75 -3 71 -7 -4 -5
-447 -10 -984 -13 l-977 -5 990 -2 c545 0 1037 2 1095 6 l105 6 -141 13 c-77
6 -162 12 -189 12 -46 0 -99 12 -137 31 -19 10 -1001 13 -1010 3z"/>
<path d="M43 1832 c-11 -7 2724 -5 2782 2 17 1 -600 3 -1370 4 -771 0 -1406
-2 -1412 -6z"/>
<path d="M5991 1786 c-10 -12 5 -15 96 -21 59 -3 158 -7 220 -9 77 -1 117 -6
130 -16 17 -13 17 -13 1 5 -15 16 -34 19 -130 21 -62 1 -158 6 -213 11 -86 8
-61 10 188 11 265 2 291 1 325 -17 74 -38 241 -53 309 -29 29 11 35 10 56 -10
15 -14 47 -27 86 -33 62 -11 62 -11 35 -26 -15 -7 -35 -11 -43 -8 -8 3 -12 3
-8 -1 4 -4 2 -13 -4 -21 -13 -14 4 -43 25 -43 6 0 24 -7 40 -15 19 -10 41 -13
62 -9 40 7 42 14 12 40 l-23 19 20 -24 20 -24 -32 23 c-37 27 -41 32 -15 23
15 -6 16 -5 2 12 -17 21 -10 19 48 -15 23 -14 40 -30 38 -37 -5 -13 62 -6 79
8 5 5 30 9 55 9 34 0 52 5 65 20 11 12 32 21 54 22 l36 1 -34 4 c-24 3 -39 -1
-57 -18 -19 -18 -31 -21 -68 -17 -32 4 -49 1 -57 -8 -20 -24 -52 -15 -127 36
-52 35 -90 52 -130 60 -32 6 -66 19 -79 32 -21 20 -27 21 -56 10 -68 -24 -235
-9 -309 29 -34 17 -61 19 -321 19 -232 0 -287 -3 -296 -14z"/>
<path d="M5952 1753 c-13 -2 -26 -11 -29 -20 -5 -12 -7 -12 -14 -1 -5 8 -7 2
-6 -16 5 -64 87 -91 272 -87 100 2 126 5 155 22 35 21 133 43 124 27 -3 -4
-20 -8 -37 -8 -18 0 -53 -11 -79 -25 -32 -17 -64 -25 -100 -26 -29 -1 -80 -5
-113 -9 -41 -6 -24 -6 55 -3 95 5 123 10 160 29 25 13 59 24 76 24 36 0 68 29
58 53 -3 10 -10 14 -15 11 -5 -2 -19 1 -31 8 -13 7 -67 13 -128 14 -58 2 -154
5 -215 7 -60 3 -120 3 -133 0z"/>
<path d="M5136 1702 c-2 -4 18 -8 44 -10 46 -2 126 -32 88 -32 -9 0 -19 4 -22
9 -7 10 -87 20 -118 14 -30 -6 -73 -82 -63 -112 9 -30 63 -71 94 -71 15 0 36
-7 47 -15 10 -8 26 -15 35 -15 20 0 77 62 84 93 7 25 -16 89 -31 88 -5 -1 -9
4 -9 9 0 23 -136 62 -149 42z"/>
<path d="M7316 1591 c-5 -7 -54 -18 -102 -23 -6 -1 -9 -13 -7 -27 3 -23 2 -23
-6 -6 -7 17 -10 15 -16 -17 -8 -43 -28 -63 -52 -54 -15 6 -16 5 -5 -6 15 -15
41 -2 57 29 11 21 50 22 70 2 7 -7 0 -7 -20 0 l-30 11 24 -17 c52 -37 152 -20
150 26 0 11 -3 9 -9 -5 -12 -30 -27 -37 -47 -24 -16 9 -15 10 4 5 18 -5 25 -1
32 18 5 13 17 27 25 30 21 8 20 30 -2 50 -20 18 -57 23 -66 8z"/>
<path d="M4786 1459 c11 -4 33 -5 49 -3 24 4 35 0 50 -18 20 -23 20 -23 0 -7
-12 10 -38 16 -68 16 l-49 0 4 -43 c1 -23 0 -40 -4 -37 -18 10 -6 -15 15 -35
27 -25 73 -28 101 -7 11 8 17 17 14 20 -3 3 -11 -1 -18 -10 -17 -21 -74 -19
-91 3 -11 14 -11 15 1 5 38 -35 133 10 116 54 -6 15 -5 16 6 5 10 -10 10 -16
0 -32 -7 -11 -8 -20 -3 -20 9 0 21 23 21 40 0 5 -14 25 -30 43 -27 31 -35 35
-81 34 -33 -1 -45 -3 -33 -8z"/>
</g>
</svg>
